<?xml version="1.0" encoding="utf-8"?>
<!DOCTYPE svg PUBLIC "-//W3C//DTD SVG 1.1//EN" "http://www.w3.org/Graphics/SVG/1.1/DTD/svg11.dtd">
<svg version="1.1" id="Layer_1" xmlns="http://www.w3.org/2000/svg" xmlns:xlink="http://www.w3.org/1999/xlink" x="0px" y="0px"
	 viewBox="0 0 1826.6104 1195.8213" enable-background="new 0 0 1826.6104 1195.8213" xml:space="preserve">
<g>
	<path d="M750.7493,854.0999c-22.7288-0.3842-44.3948-3.5393-65.6241-9.7511c-35.3432-10.3416-68.5617-25.6161-100.683-43.37
		c-55.0641-30.4348-105.4963-67.2103-152.2419-109.3918c-44.8947-40.5113-76.3994-89.1467-95.6703-146.2994
		c-15.4539-45.8326-26.4832-92.7504-37.1036-139.839c-5.8884-26.1078-12.8733-51.9708-19.536-77.9
		c-2.0385-7.9331-5.3492-14.9907-14.1018-18.0502c-1.8588-0.6497-3.1594-3.5734-4.1923-5.7039
		c-0.8948-1.8455-1.0454-4.0518-1.6577-6.6652c-1.7508,1.3383-2.9737,2.2731-5.1432,3.9315
		c-4.6389-16.6898-9.1039-32.7537-13.8522-49.8367c-1.7475,2.8285-3.1303,5.0666-5.1495,8.3348
		c-0.2208-2.4028-0.5681-3.778-0.4368-5.1059c2.9308-29.6362-6.6477-55.3953-24.2085-78.7355
		c-4.9069-6.5217-9.5881-13.2128-14.4401-19.7764c-0.7687-1.0399-1.7676-2.0313-2.8737-2.6822
		c-35.4719-20.8734-71.2929-41.0747-110.7153-53.7677c-11.2334-3.6169-22.8376-6.0821-34.0699-9.7019
		c-6.2351-2.0094-12.0411-5.34-18.0711-8.0058c-1.0079-0.4456-2.2539-0.3643-3.2453-0.8326
		c-1.3218-0.6245-2.502-1.5485-3.7431-2.3438c0.8157-1.0785,1.4135-2.7523,2.4809-3.1429
		c9.9676-3.6479,19.802-7.9965,30.0831-10.3849c25.1886-5.8517,50.9459-6.4944,76.5741-4.5757
		c25.5461,1.9124,50.9661,5.4894,76.4575,8.1853c2.129,0.2252,4.5836-0.2582,6.5432-1.1596
		c26.3024-12.0991,52.295-24.9092,78.8782-36.3491c21.6266-9.3069,45.0748-11.4744,68.2722-13.8564
		c25.8087-2.6502,51.5424-2.2436,77.1352,2.7082c25.9537,5.0216,48.3993,16.5745,66.9192,35.443
		c18.559,18.9084,36.4738,38.4675,55.4323,56.9611c30.91,30.152,62.4221,59.9349,99.2335,82.7631
		c21.1081,13.09,44.2036,23.1404,66.9026,33.4637c41.0508,18.6694,82.4634,36.5441,123.7731,54.6409
		c2.331,1.0212,5.0797,1.1733,7.6621,1.5223c16.4794,2.2276,33.0109,4.1092,49.4432,6.6376
		c58.4807,8.9984,113.2567,29.7243,166.2637,54.9689c17.3491,8.2625,35.194,16.4787,50.5239,28.7637
		c8.3075,6.6574,8.5217,6.6268-0.7123,12.2142c17.0022,2.4993,33.9426,5.5815,51.0181,7.3866
		c47.8245,5.0558,95.8805,4.0925,143.8563,4.2241c103.6559,0.2844,207.314,0.0994,310.9702-0.2138
		c38.692-0.1169,77.3102,0.9136,115.8536,4.2853c4.3691,0.3821,8.6768,1.4682,13.0128,2.2279
		c-0.0243,0.4317-0.0487,0.8634-0.0731,1.2952c-2.624,0.4694-5.2482,0.9387-7.8723,1.4081
		c-0.067,0.3779-0.1339,0.7558-0.2009,1.1337c3.0016,0.7449,6.0031,1.4897,8.9845,2.2296c-0.7704,1.3541-1.6572,2.9127-2.4517,4.309
		c-13.6372,0-27.7552,0.0601-41.8724-0.0254c-6.9966-0.0424-13.991-0.4666-20.9874-0.4992c-4.2791-0.02-4.4673,0.3156-6.5341,5.7144
		c2.3162,0.355,4.4595,0.8705,6.6243,0.9867c24.7916,1.3312,49.5886,2.5641,74.3772,3.9478
		c2.4207,0.1352,4.795,1.0997,7.1909,1.6793c-0.0778,0.7579-0.1556,1.5157-0.2334,2.2736
		c-31.1464,0.8535-62.2926,1.7069-93.4388,2.5604c-0.0254,0.4474-0.0508,0.8948-0.076,1.3423
		c1.0195,0.2486,2.0366,0.7034,3.0588,0.7151c19.1332,0.22,38.2677,0.3437,57.3987,0.6752c1.139,0.0197,2.2507,1.6165,3.3752,2.4794
		c-1.1332,0.9417-2.2218,2.6331-3.4067,2.7036c-7.6461,0.4542-15.3127,0.5865-22.9741,0.7567
		c-3.6602,0.0814-7.3236,0.014-11.1635,1.0005c30.7761,6.8856,61.5524,13.7712,92.3285,20.6568
		c-0.0189,0.4451-0.0377,0.8903-0.0566,1.3354c-3.3346,0.2811-6.6681,0.7903-10.0039,0.8069
		c-23.1642,0.1149-46.3728-0.7608-69.4829,0.3817c-34.4243,1.7018-68.8219,4.3333-103.1508,7.4524
		c-30.8412,2.8021-61.5828,6.7205-92.3529,10.2797c-49.8909,5.7708-98.123,17.0019-141.2649,44.2377
		c-9.1277,5.7623-17.7574,12.3263-26.4817,18.7054c-1.9698,1.4404-3.5271,3.5396-5.0084,5.5331
		c-2.5348,3.4114-2.1007,6.8284,1.4381,9.0564c3.4829,2.1929,7.2458,4.2686,11.1736,5.3691
		c15.0563,4.2183,30.2284,8.0237,45.3572,11.9835c0.9651,0.2527,2.0105,0.3484,2.8801,0.7898
		c3.2211,1.6352,8.7295,0.4082,8.7045,6.2194c-0.0281,6.5107-5.8218,14.1885-10.943,15.0907
		c-1.8994,0.3345-3.7986,0.6711-5.7765,2.0544c7.1476,1.9997,14.295,3.9994,21.4425,5.9991
		c-0.0349,0.6807-0.0699,1.3615-0.1049,2.0422c-2.7158,0.9655-5.3706,2.1864-8.1578,2.8529
		c-12.9463,3.0959-25.9435,5.9794-38.8865,9.0884c-2.3818,0.5721-5.2081,1.2459-6.7854,2.8802
		c-7.2953,7.5591-16.8073,8.1106-26.2477,8.9885c-36.4865,3.3929-73.0211,6.3278-109.4529,10.2261
		c-24.662,2.6389-49.2601,6.4207-72.3538,16.2c-22.1257,9.3693-40.1085,24.7789-57.8438,40.5338
		c-39.6064,35.1837-79.3579,70.2045-118.9982,105.3502c-31.1281,27.5988-68.1277,40.1772-109.0291,42.6959
		c-3.7335,0.23-5.1774,1.7897-6.8796,4.9285c-8.6465,15.9441-17.3547,31.8772-26.7155,47.4076
		c-32.766,54.3617-59.7832,111.4276-81.3924,171.0795c-1.886,5.2064-3.6426,10.4642-5.2969,15.7491
		c-2.8472,9.0948-1.0527,11.4774,8.3279,10.4863c13.9626-1.4752,27.6166,0.3983,41.1155,3.5635
		c8.4036,1.9703,15.9718,5.9723,22.9891,10.8838c-0.1242,0.4821-0.2485,0.964-0.3727,1.446
		c-5.493-0.6429-10.9704-1.5308-16.4819-1.8835c-17.7946-1.1389-35.7673-2.869-52.494,5.3978
		c-5.2443,2.5919-10.1477,6.2588-14.4803,10.2273c-8.3483,7.6466-15.991,16.0608-24.2884,23.7667
		c-5.6569,5.2538-12.1744,9.1692-20.2812,9.8572c-4.9055,0.4163-7.6773,3.7274-8.5327,8.4541
		c-0.526,2.9066-0.6521,5.8855-1.0724,9.9359c-7.0196-14.045-6.8064-26.6589,2.3767-38.8961
		c-0.348-0.2438-0.696-0.4875-1.0441-0.7313c-1.9677,0.5001-4.0169,0.7935-5.8906,1.5321
		c-22.6937,8.9473-46.181,15.0682-70.1412,19.3381c-9.4423,1.6826-18.9759,1.5179-27.8016-3.1703
		c-11.6876-6.2087-22.1235-4.6625-32.2673,3.87c-6.7903,5.7114-14.4832,10.3497-22.4016,14.802
		c3.161-10.4554,9.0804-19.1051,17.4356-25.3162c8.2097-6.1027,17.6058-10.6094,27.1109-16.1859
		c-2.9809,0-5.3805,0.0032-7.7801-0.0005c-5.6483-0.0087-11.3284-0.3971-16.9354,0.0785
		c-5.1912,0.4402-10.6381,0.9962-15.3705,2.9552c-6.5253,2.7013-12.4851,6.7684-18.6871,10.2506
		c-0.3043-0.3096-0.6085-0.6193-0.9128-0.9288c5.604-5.9054,11.2081-11.8107,16.497-17.384
		c-8.1772-2.795-16.5516-6.1298-25.1988-8.4468c-5.7449-1.5392-11.5608-0.2715-16.6203,3.3881
		c-7.1517,5.1725-14.351,10.2803-21.5829,15.34c-1.875,1.3118-3.9476,2.3412-6.5065,2.9948
		c3.2336-10.1506,9.1309-18.734,17.4504-24.9106c8.1718-6.0671,17.5162-10.5549,26.9756-16.1052
		c-2.0389-0.0919-3.8103-0.2356-5.5822-0.2404c-6.8154-0.0182-13.6567-0.3494-20.4376,0.1405
		c-4.6979,0.3396-9.627,1.1156-13.891,2.9805c-6.4969,2.8417-12.508,6.7943-18.9047,10.3757
		c2.491-6.8223,19.8513-22.619,29.6885-26.0901c11.4969-4.0565,23.1019-4.1982,34.9926-3.5441
		c21.1219,1.1619,42.2577,2.4143,63.3997,2.6851c7.2622,0.093,14.5617-2.6293,21.8397-4.0878
		c0.4789-0.0959,0.9103-0.4088,1.3801-0.5746c28.6679-10.1125,50.1577-28.3462,65.5321-54.8074
		c13.1602-22.6501,25.6184-45.5488,35.6193-69.7513c13.7897-33.3715,27.4805-66.7839,41.1952-100.1864
		C749.5371,857.9774,749.9761,856.3912,750.7493,854.0999z M818.4044,851.7511c-8.8099,0.4537-17.6074,1.0409-26.4145,1.2909
		c-3.2715,0.0929-5.0255,1.438-6.5818,4.217c-7.7296,13.8019-15.6807,27.4792-23.5249,41.217
		c-28.572,50.0389-51.2384,102.6971-69.5522,157.2678c-2.8212,8.4065-0.9233,10.0638,8.0455,10.0868
		c10.9407,0.028,21.8942,0.7192,32.808,1.5641c2.7689,0.2142,4.2177-0.1609,5.5924-2.5547
		c6.1348-10.6827,13.0425-20.9657,18.5597-31.9513c22.1312-44.0675,39.8712-90.0414,58.5797-135.6082
		C822.0961,882.229,822.3569,867.7059,818.4044,851.7511z M729.3373,1078.9899c-4.4833,0-7.7798-0.3185-10.9962,0.0548
		c-14.2976,1.6589-27.684,5.2762-37.9559,16.5371c-6.8412,7.5-14.3151,14.4237-21.5239,21.5872
		c-1.426,1.417-2.9348,2.7506-4.4054,4.1227c0.3917,0.5471,0.7834,1.0942,1.1752,1.6414
		C683.8171,1115.3771,710.0992,1104.5341,729.3373,1078.9899z M594.2618,1118.9388c0.0413,0.275,0.0826,0.55,0.124,0.8252
		c8.5709,0.4408,17.14,0.9253,25.715,1.2623c0.9742,0.0385,2.4886-0.4735,2.8871-1.2031c2.0342-3.7238,3.7841-7.6028,6.3016-12.8093
		C616.7809,1111.2725,605.5214,1115.1056,594.2618,1118.9388z"/>
</g>
</svg>
