<?xml version="1.0" encoding="UTF-8" standalone="no"?>
<svg
   width="52"
   height="52"
   viewBox="0 0 52 52"
   version="1.1"
   id="svg28"
   sodipodi:docname="ciconia-logo.svg"
   inkscape:version="1.3.2 (091e20ef0f, 2023-11-25)"
   xmlns:inkscape="http://www.inkscape.org/namespaces/inkscape"
   xmlns:sodipodi="http://sodipodi.sourceforge.net/DTD/sodipodi-0.dtd"
   xmlns="http://www.w3.org/2000/svg"
   xmlns:svg="http://www.w3.org/2000/svg">
  <sodipodi:namedview
     id="namedview28"
     pagecolor="#ffffff"
     bordercolor="#111111"
     borderopacity="1"
     inkscape:showpageshadow="0"
     inkscape:pageopacity="0"
     inkscape:pagecheckerboard="1"
     inkscape:deskcolor="#d1d1d1"
     showgrid="false"
     inkscape:zoom="6.3424242"
     inkscape:cx="165"
     inkscape:cy="38.549928"
     inkscape:window-width="2560"
     inkscape:window-height="1531"
     inkscape:window-x="0"
     inkscape:window-y="0"
     inkscape:window-maximized="1"
     inkscape:current-layer="g28" />
  <defs
     id="defs6">
    <linearGradient
       id="logo-i-a"
       x1="66.007675"
       x2="44.480782"
       y1="48.815792"
       y2="2.7299049"
       gradientTransform="scale(0.99993715,1.0000629)"
       gradientUnits="userSpaceOnUse">
      <stop
         offset="0%"
         stop-color="#FFF"
         stop-opacity="0"
         id="stop1" />
      <stop
         offset="21%"
         stop-color="#BBE9CD"
         stop-opacity=".28"
         id="stop2" />
      <stop
         offset="48%"
         stop-color="#71D195"
         stop-opacity=".59"
         id="stop3" />
      <stop
         offset="71%"
         stop-color="#3BC06D"
         stop-opacity=".81"
         id="stop4" />
      <stop
         offset="89%"
         stop-color="#19B554"
         stop-opacity=".95"
         id="stop5" />
      <stop
         offset="100%"
         stop-color="#0DB14B"
         id="stop6" />
    </linearGradient>
  </defs>
  <g
     fill="none"
     fill-rule="evenodd"
     id="g28"
     transform="matrix(1.0044215,0,0,0.98835634,-1.4546749,0.89550735)">
    <g
       transform="translate(-27.649856,-0.11403604)"
       id="g27">
      <path
         fill="url(#logo-i-a)"
         fill-rule="nonzero"
         d="m 78.278301,15.012484 c 4.355142,9.320937 2.666256,20.347589 -4.279052,27.937704 C 67.053942,50.540303 56.220151,53.198942 46.550188,49.686257 36.880225,46.173571 30.278672,37.181414 29.824147,26.903255 29.369622,16.625096 35.151648,7.0853072 44.473791,2.7327451 57.199698,-3.2090541 72.332979,2.2882223 78.278301,15.012484 Z"
         id="path18"
         style="fill:url(#logo-i-a)" />
      <path
         d="m 56.260327,30.72451 c 0.327124,0.704575 0.669346,1.404117 1.041765,2.078497 0.42062,0.785701 0.916122,1.528953 1.479607,2.219411 0.06542,0.08052 0.145948,0.166079 0.226471,0.256667 0.08052,0.09059 0.156013,0.196275 0.22647,0.296928 0.141858,0.197883 0.268058,0.406534 0.377451,0.624052 0.206313,0.42382 0.374726,0.86506 0.503268,1.318562 0.02982,0.08923 0.05501,0.17994 0.07549,0.271765 2.013072,-0.387516 3.784575,-1.006536 3.814771,-1.61549 0.0302,-0.608954 -2.858562,-1.378954 -4.463987,-2.284837 -0.603922,-0.342222 -1.801699,-1.806732 -2.375425,-2.989411 -0.296928,-0.05033 -0.603921,-0.105687 -0.905882,-0.176144 z"
         id="path19" />
      <path
         fill="#000000"
         fill-rule="nonzero"
         d="m 75.022157,39.254902 v -0.03523 c -0.03072,-0.665815 -0.109768,-1.328519 -0.236536,-1.982876 -0.252061,-1.300475 -0.620942,-2.575557 -1.102157,-3.809738 -0.474365,-1.231201 -1.029156,-2.429886 -1.660784,-3.588301 -0.628646,-1.16185 -1.340091,-2.276953 -2.128824,-3.336667 -0.39733,-0.526937 -0.82411,-1.031008 -1.2783,-1.509803 -0.457974,-0.503268 -0.931046,-0.936079 -1.414183,-1.383987 -0.961242,-0.895817 -1.95268,-1.751373 -2.969282,-2.581765 -1.016601,-0.830392 -2.0483,-1.630588 -3.120261,-2.390523 -0.540753,-0.39018 -1.101849,-0.751365 -1.680915,-1.082026 -0.593315,-0.314735 -1.215112,-0.572553 -1.857059,-0.77 -1.272121,-0.38129 -2.578424,-0.637494 -3.900327,-0.764967 -1.308977,-0.135788 -2.624673,-0.19628 -3.940588,-0.181177 -0.659281,0 -1.313529,0.02516 -1.97281,0.05536 l -1.006536,0.06542 -0.503268,0.03523 c -0.129907,0.01521 -0.261533,0.005 -0.387516,-0.0302 -0.253467,-0.05942 -0.481089,-0.198813 -0.649216,-0.397582 -0.160955,-0.201694 -0.249563,-0.451571 -0.251634,-0.709607 4e-4,-0.279613 0.06587,-0.555296 0.191242,-0.805229 0.143921,-0.276234 0.312353,-0.538988 0.503268,-0.785098 0.739803,-1.046798 1.625555,-2.013072 2.355294,-3.145425 l 0.135882,-0.2264706 c 0.04712,-0.082159 0.08751,-0.1679946 0.120784,-0.2566667 0.06727,-0.1739264 0.116185,-0.3544049 0.145948,-0.5384967 0.05656,-0.3458804 0.07344,-0.6970867 0.05033,-1.0467974 C 48.444101,7.6840073 48.351785,7.3232936 48.192941,6.9903922 48.025324,6.6658376 47.798278,6.3756281 47.523595,6.1348366 46.394005,5.1974891 44.823016,5.0011155 43.497451,5.6315686 42.476884,6.0412518 41.740356,6.9490658 41.549804,8.0321569 41.476373,8.3387715 41.439212,8.6529503 41.439085,8.9682353 l -2.898824,3.2460787 c -1.006535,1.102157 -1.977843,2.219412 -3.019607,3.296405 l 0.04529,-0.04529 c 1.076993,-1.006536 2.118758,-2.013072 3.15549,-3.059869 l 3.150457,-3.1605233 0.07046,-0.070457 v -0.125817 c 0.0088,-0.2971531 0.05792,-0.5917357 0.145948,-0.8756863 0.07391,-0.2861303 0.187405,-0.5605427 0.337189,-0.8152941 0.342046,-0.5047273 0.810605,-0.910812 1.358824,-1.1776471 1.097858,-0.5183961 2.395904,-0.3598113 3.336666,0.4076471 0.215809,0.1906747 0.394902,0.4192322 0.528432,0.6743791 0.116376,0.2604545 0.182948,0.5403992 0.196274,0.8253594 0.02693,0.2985543 0.01848,0.5992453 -0.02516,0.895817 -0.02266,0.1388343 -0.05804,0.2752911 -0.105686,0.4076471 -0.02793,0.064019 -0.05986,0.1262119 -0.09562,0.1862091 -0.03487,0.065922 -0.07352,0.1297753 -0.115752,0.1912419 -0.679412,1.0618961 -1.565163,2.0130721 -2.335163,3.1202621 -0.204438,0.276603 -0.383011,0.571417 -0.533464,0.880719 -0.164172,0.338956 -0.250163,0.710441 -0.251634,1.087059 0.0073,0.401406 0.151039,0.788365 0.407647,1.097124 0.261794,0.30636 0.614334,0.521409 1.006536,0.613987 0.192782,0.04525 0.391387,0.06053 0.588823,0.04529 l 0.503268,-0.04026 c 0.322092,0 0.649216,-0.04529 0.971307,-0.06039 0.644183,-0.03523 1.293399,-0.05536 1.942615,-0.06039 1.292381,-0.01019 2.584353,0.05029 3.87013,0.181176 1.279199,0.123513 2.543333,0.371284 3.77451,0.739804 0.583509,0.196378 1.14784,0.445695 1.685948,0.744837 0.554019,0.307174 1.091573,0.643146 1.610457,1.006536 1.056863,0.749869 2.08353,1.550065 3.090066,2.370392 1.006536,0.820327 1.987908,1.665817 2.939085,2.551569 0.959451,0.856439 1.83569,1.801766 2.616993,2.823332 1.528066,2.083895 2.771992,4.361889 3.69902,6.773987 0.470086,1.197913 0.830561,2.435989 1.076993,3.69902 0.101235,0.538928 0.170138,1.08343 0.20634,1.630588 -0.07563,-0.04697 -0.14794,-0.0991 -0.216405,-0.156013 -0.224322,-0.180446 -0.41366,-0.400489 -0.558627,-0.649216 l -0.140916,-0.251634 -0.261699,0.115752 c -0.157845,0.07202 -0.335981,0.08627 -0.503268,0.04026 -0.184703,-0.05739 -0.35589,-0.151543 -0.503268,-0.276797 -0.335047,-0.291128 -0.625064,-0.63033 -0.86059,-1.006541 l -0.226471,-0.347255 -0.256666,0.286863 c -0.15328,0.08727 -0.336869,0.103794 -0.503268,0.04529 -0.243435,-0.05891 -0.476098,-0.155713 -0.689477,-0.286863 -0.458736,-0.263349 -0.881611,-0.584734 -1.25817,-0.956209 -0.808646,-0.801416 -1.701217,-1.513449 -2.662288,-2.123791 -0.958999,-0.593203 -1.969645,-1.098526 -3.019608,-1.509804 -0.503268,-0.216405 -1.036732,-0.41268 -1.545033,-0.644183 -0.519828,-0.208412 -0.991001,-0.521957 -1.383986,-0.92098 0.371561,0.422626 0.825346,0.765106 1.33366,1.006536 0.266732,0.140915 0.533464,0.276797 0.800196,0.402614 l 0.709608,0.342222 c 1.006227,0.458648 1.969598,1.006018 2.878692,1.635621 0.900194,0.640412 1.727176,1.377945 2.466013,2.199281 0.383592,0.451548 0.845637,0.83005 1.363857,1.117255 0.271979,0.150993 0.56317,0.264422 0.865621,0.33719 0.164528,0.04029 0.334189,0.05556 0.503268,0.04529 0.08733,-0.01167 0.173297,-0.0319 0.256666,-0.06039 0.229339,0.345134 0.507329,0.65533 0.82536,0.92098 0.215846,0.185944 0.470227,0.321728 0.744836,0.397582 0.211149,0.05544 0.433035,0.05544 0.644183,0 0.161276,0.229156 0.352544,0.435657 0.568693,0.613987 0.144439,0.122828 0.303299,0.227608 0.473072,0.312026 0.113756,0.05898 0.239308,0.09166 0.367386,0.09562 h 0.08555 c 0.03642,-0.0078 0.07187,-0.01961 0.105687,-0.03523 0.08162,-0.03818 0.148705,-0.101738 0.191241,-0.181177 0.02089,-0.04096 0.03451,-0.08523 0.04026,-0.130849 0.0011,-0.01508 0.0011,-0.03022 0,-0.04529 v -0.05033 z"
         id="path20" />
      <path
         d="m 63.532549,36.089346 c 0.0302,-0.63915 -3.15549,-1.303464 -4.569673,-2.51634 -0.8089,-0.680281 -1.406152,-1.577906 -1.721177,-2.586797 -0.01652,-0.03458 -0.035,-0.06818 -0.05536,-0.100653 -0.312026,-0.05033 -0.624052,-0.105687 -0.926013,-0.176144 0.327124,0.704575 0.669346,1.404117 1.041765,2.078496 0.42062,0.785702 0.916122,1.528954 1.479607,2.219412 0.06542,0.08052 0.145948,0.166079 0.226471,0.256667 0.08052,0.09059 0.156013,0.196274 0.22647,0.296928 0.141858,0.197883 0.268058,0.406534 0.377451,0.624052 0.2016,0.382438 0.369975,0.781486 0.503268,1.192745 1.786602,-0.347255 3.386994,-0.744836 3.41719,-1.288366 z"
         id="path21" />
      <path
         fill="#ffffff"
         fill-rule="nonzero"
         d="m 56.511961,50.502941 v 0 0 c 0,0 0,-0.005 0,0 z M 74.166601,37.352549 C 73.920169,36.089519 73.559694,34.851441 73.089608,33.653529 72.16258,31.241431 70.918654,28.963437 69.390588,26.879542 68.609285,25.857975 67.733046,24.912649 66.773595,24.056209 65.822418,23.170457 64.836013,22.324967 63.83451,21.50464 62.833007,20.684314 61.821438,19.884118 60.744444,19.134248 60.225788,18.767428 59.688229,18.428094 59.133987,18.117647 58.57172,17.814217 57.981931,17.56482 57.372549,17.37281 56.141372,17.00429 54.877238,16.756519 53.598039,16.633006 52.312262,16.502122 51.02029,16.44164 49.727908,16.45183 c -0.649215,0 -1.298431,0.02516 -1.942614,0.06039 -0.322091,0 -0.649216,0.03523 -0.971307,0.06039 l -0.503268,0.04026 c -0.197436,0.01524 -0.396041,-4e-5 -0.588824,-0.04529 -0.392202,-0.09258 -0.744741,-0.307627 -1.006536,-0.613987 -0.252983,-0.310111 -0.393163,-0.696937 -0.397581,-1.097124 0.0015,-0.376618 0.08746,-0.748103 0.251634,-1.087059 0.150453,-0.309302 0.329026,-0.604116 0.533464,-0.880719 0.77,-1.087059 1.655752,-2.058366 2.335163,-3.1202616 0.04223,-0.061467 0.08088,-0.1253201 0.115752,-0.1912419 0.03576,-0.059997 0.06769,-0.1221905 0.09562,-0.1862091 0.04765,-0.132356 0.08303,-0.2688128 0.105686,-0.4076471 0.04365,-0.2965717 0.0521,-0.5972627 0.02516,-0.895817 C 47.766935,7.8025561 47.700363,7.5226114 47.583987,7.2621569 47.450457,7.00701 47.271364,6.7784525 47.055556,6.5877778 46.114793,5.8203194 44.816747,5.6617346 43.718889,6.1801307 43.186541,6.4450014 42.730874,6.8417608 42.395294,7.3326144 42.24551,7.5873658 42.132018,7.8617782 42.058105,8.1479085 c -0.08803,0.2839506 -0.13713,0.5785332 -0.145948,0.8756863 v 0.125817 l -0.07046,0.070457 -3.090065,3.1605222 c -1.036732,1.036732 -2.078497,2.063399 -3.15549,3.059869 0.211372,-0.125817 6.451895,-3.950653 8.636078,-4.791111 0.503268,-0.452941 1.05183,-0.8756855 1.600392,-1.2833325 -0.904036,0.8197885 -1.745184,1.7063595 -2.51634,2.6522215 -0.374671,0.467169 -0.711262,0.963642 -1.006535,1.484641 -0.14653,0.257819 -0.279244,0.523248 -0.397582,0.795163 -0.120784,0.266732 -0.241569,0.528432 -0.33719,0.805229 -0.407638,1.082725 -0.393267,2.279143 0.04026,3.351765 0.21857,0.53431 0.528515,1.026476 0.915947,1.454444 0.397582,0.427778 0.845491,0.835425 1.298432,1.248105 0.452941,0.412679 0.910915,0.810261 1.353791,1.248104 0.228785,0.221608 0.443909,0.456899 0.644183,0.704575 0.178279,0.232113 0.373403,0.450786 0.58379,0.654249 0.874131,0.830339 1.802165,1.60202 2.77804,2.31 0.97634,0.724706 1.977843,1.414183 3.019608,2.073464 0.503268,0.332157 1.006536,0.649215 1.550065,0.956209 0.508886,0.306731 1.038611,0.57748 1.585294,0.810261 l 0.120784,0.05033 0.05033,0.115752 c 0.377451,0.825359 0.77,1.635621 1.207843,2.425751 0.416619,0.783461 0.905216,1.526466 1.459478,2.219412 0.06542,0.08052 0.145947,0.161046 0.221437,0.256667 0.08296,0.09256 0.160267,0.190037 0.231504,0.291895 0.137363,0.199835 0.261759,0.408281 0.372418,0.624053 0.216028,0.43118 0.392882,0.880896 0.528431,1.343725 l 0.07549,0.266732 0.503268,-0.09562 C 59.982065,37.001685 59.81369,36.602637 59.61209,36.220199 59.502697,36.002681 59.376497,35.79403 59.234639,35.596147 c -0.07046,-0.100654 -0.145947,-0.201307 -0.22647,-0.296928 -0.08052,-0.09562 -0.161046,-0.176144 -0.226471,-0.256667 -0.563485,-0.690458 -1.058987,-1.43371 -1.479607,-2.219412 -0.372419,-0.674379 -0.714641,-1.373921 -1.041765,-2.078497 0.301961,0.07046 0.613987,0.125817 0.926013,0.176144 0.02035,0.03247 0.03884,0.06608 0.05536,0.100654 -0.08321,-0.269039 -0.140505,-0.545416 -0.171111,-0.82536 0.06922,0.252715 0.168932,0.496071 0.296928,0.724706 1.529885,0.142368 3.045051,0.413414 4.529412,0.810262 -0.266732,-0.125817 -0.533464,-0.2617 -0.800196,-0.402615 -0.508314,-0.24143 -0.962099,-0.583909 -1.33366,-1.006536 0.392985,0.399024 0.864159,0.712569 1.383987,0.920981 0.503268,0.231503 1.006536,0.427778 1.545032,0.644183 1.049963,0.411277 2.060609,0.916601 3.019608,1.509805 0.961071,0.610342 1.853643,1.322375 2.662288,2.12379 0.37656,0.371475 0.799434,0.692861 1.25817,0.956209 0.213379,0.131149 0.446043,0.227951 0.689477,0.286862 0.166399,0.0585 0.349988,0.04198 0.503268,-0.04529 l 0.256667,-0.286862 0.22647,0.347255 c 0.235526,0.376211 0.525544,0.715413 0.860588,1.006535 0.147378,0.125255 0.318566,0.219408 0.503268,0.276798 0.167288,0.04601 0.345423,0.03176 0.503268,-0.04026 l 0.2617,-0.115751 0.140915,0.251634 c 0.144967,0.248727 0.334306,0.46877 0.558627,0.649215 0.06847,0.05692 0.140772,0.109043 0.216406,0.156013 -0.03034,-0.540014 -0.09252,-1.077768 -0.18621,-1.610457 z"
         id="path22" />
      <path
         fill="#ffffff"
         fill-rule="nonzero"
         d="m 54.619673,30.281634 c 0.115752,0.06543 0.241569,0.120784 0.35732,0.186209 v 0 c -0.120784,-0.07046 -0.241568,-0.13085 -0.35732,-0.186209 z m 4.765948,2.863595 c 1.283333,1.092091 4.313006,1.95268 4.791111,2.853529 0.03238,0.110502 0.01589,0.229577 -0.04529,0.327124 -0.417712,0.754902 -2.38549,1.253138 -4.393529,1.655752 0.0432,0.212697 0.07345,0.427821 0.09059,0.644183 0.02675,0.477413 0.0048,0.956308 -0.06542,1.429281 -0.129741,0.915414 -0.311208,1.822749 -0.543529,2.717647 l -0.342223,1.328627 c -0.120784,0.442876 -0.28183,0.875687 -0.43281,1.308497 -0.603922,1.706079 -1.248105,3.392026 -1.907386,5.072941 1.00607,-1.496308 1.849624,-3.095687 2.51634,-4.77098 0.15098,-0.43281 0.312026,-0.865621 0.427778,-1.308497 l 0.347255,-1.33366 c 0.233591,-0.89432 0.413412,-1.801827 0.538496,-2.717647 0.06962,-0.473031 0.09321,-0.951697 0.07046,-1.429281 0,-0.216405 -0.05536,-0.427778 -0.09562,-0.63915 2.013072,-0.402615 3.975817,-0.905883 4.39353,-1.655752 0.06228,-0.09702 0.08056,-0.215872 0.05033,-0.327124 -0.22647,-1.248105 -3.839934,-2.38549 -5.103137,-3.185686 -0.851283,-0.558867 -1.604553,-1.254324 -2.229477,-2.058366 0.522404,0.799711 1.175718,1.505766 1.932549,2.088562 z"
         id="path23" />
      <path
         fill="#ffffff"
         fill-rule="nonzero"
         d="m 56.159673,38.701307 c -1.625555,0.397582 -3.930523,1.006536 -5.807712,2.269739 1.927516,-1.046798 4.781045,-1.570196 6.406601,-1.972811 0.684445,-0.166078 1.479608,-0.312026 2.405621,-0.503268 0,-0.135882 -0.0302,-0.271764 -0.05536,-0.407647 -1.107189,0.231503 -2.174117,0.422745 -2.94915,0.613987 z"
         id="path24" />
      <path
         fill="#000000"
         fill-rule="nonzero"
         d="m 57.241699,31.001307 c 0.315025,1.008891 0.912277,1.906516 1.721177,2.586798 1.414183,1.197777 4.599869,1.862091 4.569673,2.516339 -0.0302,0.54353 -1.61549,0.941112 -3.442353,1.303464 l -0.503268,0.09562 -0.07549,-0.266732 c -0.136677,-0.455949 -0.313513,-0.898882 -0.528431,-1.323594 -0.11066,-0.215772 -0.235055,-0.424218 -0.372419,-0.624053 -0.07124,-0.101858 -0.148544,-0.199333 -0.231503,-0.291895 -0.07549,-0.09562 -0.156013,-0.176144 -0.221438,-0.256667 -0.561237,-0.692116 -1.056592,-1.435148 -1.479608,-2.219411 -0.437843,-0.790131 -0.830392,-1.600393 -1.207843,-2.425752 l -0.05033,-0.115752 -0.120784,-0.05033 c -0.546683,-0.232781 -1.076408,-0.50353 -1.585294,-0.810261 -0.503268,-0.306994 -1.036732,-0.624052 -1.550066,-0.956209 -1.006536,-0.659281 -2.013071,-1.348758 -3.019607,-2.073464 -0.975875,-0.70798 -1.903909,-1.479661 -2.77804,-2.31 -0.210387,-0.203463 -0.405511,-0.422136 -0.58379,-0.654249 -0.200274,-0.247676 -0.415398,-0.482967 -0.644183,-0.704575 -0.442876,-0.437843 -0.905883,-0.840457 -1.353791,-1.248104 -0.447909,-0.407647 -0.90085,-0.820327 -1.298432,-1.248105 -0.387432,-0.427968 -0.697377,-0.920134 -0.915947,-1.454444 -0.433529,-1.072622 -0.4479,-2.26904 -0.04026,-3.351765 0.09562,-0.276797 0.216405,-0.538497 0.33719,-0.805229 0.118337,-0.271915 0.251052,-0.537344 0.397581,-0.795163 0.295273,-0.520999 0.631865,-1.017471 1.006536,-1.484641 0.771156,-0.945862 1.612304,-1.832432 2.51634,-2.652222 -0.548562,0.4076471 -1.082026,0.830392 -1.600392,1.283333 -0.407647,0.352288 -0.810261,0.724706 -1.187712,1.122288 -0.429426,0.451107 -0.826326,0.932095 -1.187713,1.439346 -0.176144,0.256667 -0.347255,0.503268 -0.503268,0.805229 -0.443389,0.860018 -0.682756,1.810598 -0.699542,2.778039 0.0066,0.653034 0.138161,1.298766 0.387516,1.902353 0.12504,0.298853 0.274865,0.58672 0.447909,0.860588 0.166728,0.278204 0.362414,0.537993 0.583791,0.775033 0.427777,0.468039 0.885751,0.880719 1.338692,1.293399 0.452941,0.41268 0.910915,0.810261 1.338693,1.233006 0.211979,0.199828 0.408797,0.41515 0.588824,0.644183 0.193948,0.251548 0.405876,0.488705 0.634117,0.709608 0.907495,0.850727 1.872715,1.637701 2.888759,2.355294 1.006535,0.734772 2.013071,1.429281 3.019607,2.098628 0.503268,0.332157 1.041765,0.654248 1.575229,0.966274 0.387516,0.226471 0.785098,0.437843 1.197778,0.634118 0.115752,0.05536 0.231503,0.115752 0.352287,0.166078 v 0 c 0.362353,0.790131 0.74987,1.575229 1.172615,2.345229 0.442361,0.82209 0.961352,1.600577 1.550065,2.325098 0.151492,0.157195 0.291113,0.325413 0.417713,0.503268 0.123686,0.173714 0.233086,0.357169 0.327124,0.548562 0.206128,0.387281 0.374655,0.793431 0.503268,1.212876 0,0.06542 0.03523,0.135882 0.05536,0.201307 -1.107189,0.211373 -2.209346,0.41268 -3.019608,0.629085 -2.053333,0.54353 -3.402091,0.951177 -5.611437,2.737778 1.877189,-1.283333 4.182156,-1.872157 5.807712,-2.269739 0.775033,-0.191241 1.841961,-0.382483 2.94915,-0.598888 0.02516,0.135882 0.04026,0.271764 0.05536,0.407647 0,0.05536 0,0.110719 0.02516,0.166078 0.02019,0.433908 -0.0017,0.86875 -0.06542,1.298431 -0.116409,0.889728 -0.284448,1.771936 -0.503268,2.642157 -0.110719,0.442876 -0.231503,0.875687 -0.35732,1.31353 -0.125817,0.437843 -0.221438,0.880719 -0.33719,1.318562 -0.427777,1.751372 -0.941111,3.482614 -1.389019,5.239019 v 0 0.03523 c 8.68e-4,-0.01844 8.68e-4,-0.03692 0,-0.05536 0.659281,-1.680915 1.303464,-3.366863 1.907385,-5.072942 0.150981,-0.43281 0.312027,-0.86562 0.432811,-1.308496 l 0.342222,-1.328628 c 0.232322,-0.894898 0.413789,-1.802232 0.54353,-2.717647 0.07025,-0.472972 0.09217,-0.951868 0.06542,-1.429281 -0.01714,-0.216362 -0.04739,-0.431485 -0.09059,-0.644183 2.013072,-0.402614 3.975817,-0.900849 4.39353,-1.655751 0.06118,-0.09755 0.07767,-0.216623 0.04529,-0.327125 C 63.70366,35.06268 60.658889,34.202092 59.390654,33.11 58.632025,32.527631 57.976988,31.821552 57.453072,31.021438 l -0.07046,-0.13085 c -0.131017,-0.218396 -0.235753,-0.451518 -0.312026,-0.69451 0.03186,0.27315 0.08914,0.542729 0.171111,0.805229 z"
         id="path25" />
      <path
         fill="#000000"
         fill-rule="nonzero"
         d="m 59.516471,29.239869 c 2.013071,0.61902 5.646666,1.288366 7.619477,3.578236 -1.348759,-2.616994 -5.87817,-3.522876 -7.387974,-4.026144 -4.026144,-1.363856 -9.788562,-5.244053 -11.147386,-7.901307 0.578758,3.054836 7.488628,7.292352 10.915883,8.349215 z"
         id="path26" />
      <path
         fill="#000000"
         fill-rule="nonzero"
         d="m 80.759412,25.722026 c 0,-14.155852 -11.475586,-25.63143738 -25.631438,-25.63143738 -14.155852,0 -25.631438,11.47558538 -25.631438,25.63143738 0,14.131765 11.13732,25.490523 26.547386,25.490523 C 42.022876,50.653922 30.377255,39.602157 30.377255,25.722026 c 0,-13.880131 10.890719,-24.7154901 24.750719,-24.7154901 13.86,0 24.765817,10.8454251 24.765817,24.7255551 0,3.855033 -1.323595,10.015033 -3.729216,14.267648 2.732745,-3.407125 4.594837,-10.276733 4.594837,-14.277713 z"
         id="path27" />
    </g>
  </g>
</svg>
