<?xml version="1.0" encoding="utf-8"?>
<!DOCTYPE svg PUBLIC "-//W3C//DTD SVG 1.1//EN" "http://www.w3.org/Graphics/SVG/1.1/DTD/svg11.dtd">
<svg version="1.1" id="Layer_1" xmlns="http://www.w3.org/2000/svg" xmlns:xlink="http://www.w3.org/1999/xlink" x="0px" y="0px"
	 viewBox="0 0 2772.0935 1440.6692" enable-background="new 0 0 2772.0935 1440.6692" xml:space="preserve">
<g>
	<path d="M334.698,371.5513c-3.0482-2.5826-5.9485-4.0719-9.1386-5.2659c-21.0038-7.8605-42.6072-13.9044-63.7998-21.1863
		c-12.9041-4.4338-25.517-9.6334-38.2397-14.5429c-11.512-4.4423-22.0442-10.3615-31.7653-17.6705
		c-8.1843-6.1534-16.3003-12.568-22.4268-20.9999c-2.7266-3.7527-1.8564-6.7525,2.3948-8.4307
		c6.4566-2.5488,12.9908-1.1354,19.0682,0.7438c13.5502,4.1899,26.8694,9.0979,40.0632,14.3803
		c17.5743,7.0362,35.4162,13.4039,53.1444,20.0555c11.3047,4.2415,22.5746,8.5796,33.9263,12.6918
		c18.0038,6.522,35.7155,14.14,54.4709,18.1611c22.1466,4.7481,43.8935,11.1169,66.0571,15.6576
		c8.9389,1.8314,18.161,2.5475,27.3691,3.1992c9.6032,0.6797,19.2937,0.2342,28.8724,1.9181
		c6.3853,1.1225,13.0093,0.894,19.4833,1.2104c10.0834,0.4928,20.1309,1.8527,30.2587,1.6429
		c12.0038-0.2487,24.0297,0.7026,35.9304,1.6114c13.71,1.0469,27.3939,1.2103,40.9906,0.563
		c8.4966-0.4045,17.1579-0.1715,25.6688-1.933c4.874-1.0087,10.0707-1.054,15.0479-1.184
		c8.6267-0.2253,17.239-1.0212,25.7379-1.9052c9.6075-0.9993,19.2401-0.5565,28.8394-1.7821
		c8.7104-1.1122,17.6174-0.9915,26.4414,0.2975c15.2887,2.2335,30.2735,5.8887,45.3607,9.1072
		c16.9033,3.606,33.7281,7.5764,50.6451,11.0715c13.4457,2.778,26.8765,5.6926,40.627,7.1827
		c9.7111,1.0524,19.4453,2.726,29.149,4.2512c7.8517,1.2341,15.7673,2.0659,23.6586,3.0434
		c8.3041,1.0286,16.611,2.0359,24.9207,3.0188c6.0192,0.712,12.1202,0.9887,18.0454,2.1631
		c5.3412,1.0588,10.7681,0.8837,16.1058,1.988c4.891,1.012,9.9825,0.8647,14.985,1.573c10.5428,1.4928,21.2064,1.987,31.7516,3.6826
		c4.9305,0.7929,10.0743,1.2331,15.0028,1.2716c16.4329,0.1285,32.8286,1.2829,49.2314,1.8234
		c12.9725,0.4275,26.0502,0.0802,38.9879,1.8245c1.8722,0.2524,3.7859,0.4279,5.6672,0.3439
		c14.9384-0.6667,29.8464,0.637,44.7782,0.7249c16.3617,0.0962,32.7078,1.8385,49.0752,2.511
		c5.6294,0.2312,11.2744,0.062,16.9169,0.5164c3.8223,0.3078,6.6587-1.6563,9.1371-4.6346
		c8.8035-10.5796,18.0475-20.6952,29.3552-28.7942c8.4054-6.0201,14.9304-14.1269,22.0846-21.505
		c3.4954-3.6048,7.092-7.1638,9.9098-11.4042c2.3678-3.5635,2.4747-3.4925-1.0004-5.9494c-2.8424-2.0096-3.2377-3.368-0.8948-6.182
		c2.9467-3.5395,5.6012-7.3386,9.2391-10.3191c2.2247-1.8224,4.7617-3.4583,6.4695-6.4173
		c-1.4078-1.6078-3.4753-1.3521-5.0977-1.9463c-5.3917-1.975-6.0096-4.6403-1.9875-8.5964
		c2.4313-2.3914,5.3761-4.0439,8.0612-6.0669c1.6753-1.2623,3.3218-2.5754,4.8746-3.9834c1.2948-1.174,2.2968-2.2922,0.1384-3.9174
		c-2.6016-1.9592-1.8246-4.4343-0.1388-6.6625c2.28-3.0139,4.6954-5.9267,6.9369-8.9681c1.5027-2.0389,2.2607-4.0414-0.8618-5.5561
		c-2.4591-1.1929-2.4117-3.2074-1.1475-5.3139c7.8308-13.0489,13.0554-27.1674,17.7408-41.5911
		c4.0901-12.5907,13.5667-21.5907,22.5527-30.7497c6.785-6.9155,13.4103-13.8079,16.9509-23.1649
		c2.189-5.7849,5.9264-10.6069,11.6608-13.5573c3.6061-1.8553,5.0992-5.3565,6.6558-8.8157
		c4.0563-9.015,9.0486-17.3323,17.0231-23.563c9.5601-7.4696,24.5714-5.1356,31.9927,2.9763
		c3.8309,4.1875,3.9403,5.3834-0.0448,9.2956c-4.38,4.2997-5.6315,10.242-8.0496,15.4744
		c-6.4315,13.9175-6.8641,28.8661-5.8673,43.8916c0.3878,5.8467,3.8729,10.5796,5.9309,15.8233
		c1.6874,4.2994,3.7009,8.4713,5.3712,12.7768c1.4012,3.6121,2.4906,7.2253-1.9186,9.9181
		c-1.8372,1.122-1.0931,2.9595-0.1643,4.4821c1.618,2.6527,3.345,5.2416,4.887,7.937c1.1389,1.9911,2.5869,3.8886,2.8453,6.2649
		c0.1302,1.1984,0.3895,2.5464-1.2598,3.1324c-1.239,0.4403-3.2974-0.4677-3.4835,1.7664
		c-0.1405,1.6875,0.4957,3.1974,1.4132,4.7202c2.1656,3.5945,4.0011,7.386,6.0526,11.0517
		c1.2863,2.2987,1.6024,4.3806-0.9152,6.0136c-2.6119,1.6941-1.3164,3.5266-0.335,5.4261c1.3336,2.5808,3.6827,4.4295,4.5258,7.4716
		c0.701,2.5287,1.7897,4.6151-0.4691,6.8532c-2.0066,1.9883-0.2744,3.9932,0.4889,5.7358c1.4216,3.246,3.2372,6.3208,4.9163,9.4522
		c1.1769,2.1948,1.8705,4.5703-0.4985,6.1934c-3.769,2.5818-2.5165,5.5196-0.6858,8.1603
		c5.0219,7.2437,10.0131,14.5099,15.7981,21.2093c12.8073,14.8318,28.2981,26.9221,41.7333,41.112
		c2.7043,2.8562,5.9106,5.2919,9.1104,7.6114c4.6406,3.3641,9.7666,4.9729,15.6655,5.63
		c7.6919,0.8567,15.5313,0.1162,23.1008,2.1143c0.6006,0.1586,1.2585,0.1791,1.8849,0.1511
		c13.0776-0.5855,26.0519,1.389,39.1304,1.4552c17.0206,0.086,34.0317,1.4594,51.0541,2.0834
		c8.6027,0.3154,17.2214,0.1914,25.8326,0.2838c6.9409,0.0746,13.9131-0.4696,20.7783,1.1329
		c1.0052,0.2346,2.1324,0.2824,3.1447,0.0971c6.4939-1.1889,12.9816,0.2606,19.4512-0.0323
		c6.5173-0.2951,13.0127-0.038,19.5149,0.0809c19.1423,0.3499,38.1252-1.7643,57.1614-3.2965
		c13.1813-1.061,26.2688-2.8302,39.3622-4.4597c14.0393-1.7471,28.0077-4.1385,41.7751-7.6957
		c16.3031-4.2125,32.6298-8.4041,49.2751-11.1761c8.6251-1.4364,17.1882-3.2414,25.799-4.7688
		c1.8456-0.3274,3.7782-0.1432,5.6677-0.248c16.2281-0.9,32.4351,0.4548,48.5643,1.498c25.9059,1.6755,51.7245,0.46,77.5636-0.3377
		c13.4573-0.4154,26.9302-0.7395,40.366-1.3744c14.2527-0.6735,28.5488-1.262,42.7563-2.4853
		c22.0078-1.8949,44.0793-2.2635,66.0803-3.8254c12.9663-0.9206,25.9707-1.7101,38.9265-3.2226
		c7.635-0.8913,15.4585-1.3095,23.2095-1.7485c6.8662-0.3888,13.731-1.4211,20.5803-2.0785
		c9.1558-0.8788,18.1685-2.2852,27.1555-4.1039c7.3215-1.4817,14.6809-2.7778,22.0046-4.2495
		c13.8396-2.781,27.6951-5.4958,41.4897-8.4868c13.5891-2.9464,27.051-6.5027,40.6821-9.2245
		c10.9971-2.1958,22.0032-4.4152,33.1316-5.9848c6.1724-0.8706,12.2915-2.154,18.4773-3.0635
		c11.2659-1.6564,22.5649-2.3385,33.9136-1.8431c7.4902,0.3271,12.6047,5.4062,12.4585,11.5067
		c-0.0969,4.0384-2.5256,6.7421-5.3191,8.8142c-6.0491,4.486-12.7068,7.8793-19.9468,10.2537
		c-11.9214,3.9096-24.1067,6.7902-36.1663,10.147c-9.6543,2.6872-19.6785,3.3091-29.1611,6.1818
		c-9.2554,2.8039-18.7917,3.5612-28.165,5.3926c-11.2002,2.1883-22.3276,4.7331-33.7231,6.1016
		c-5.8208,0.6991-11.5967,2.9352-17.5217,4.0358c-4.6943,0.8721-9.4827,1.5068-13.9556,3.3756
		c-1.5383,0.6428-3.2068,1.0379-4.6316,3.0143c3.8584,2.6217,8.1309,4.0001,12.4966,4.3783
		c8.3782,0.726,16.9553,2.0603,25.1719,0.9969c9.864-1.2765,19.8269,0.4342,29.5488-1.8875
		c1.011-0.2414,2.0933-0.2578,3.1423-0.2552c12.5774,0.0299,25.0557-1.6077,37.531-2.7581
		c11.8264-1.0905,23.6873-2.1433,35.4695-3.6859c13.0127-1.7036,25.9907-3.7151,38.7998-6.72
		c10.7524-2.5225,21.5396-4.9785,32.4165-6.8493c4.2734-0.7351,8.7349-0.6564,13.0823-1.4406
		c2.4854-0.4484,4.9241,0.4852,7.3979,0.9612c5.3574,1.0309,6.6619,7.9991,3.7107,11.6229
		c-2.5374,3.1154-5.5059,5.7928-8.8877,7.7289c-8.5083,4.8709-16.9399,9.8076-26.4409,12.8756
		c-6.7053,2.1653-13.2358,5.0538-19.8828,7.5387c-7.9419,2.9689-16.2742,4.1955-24.4443,5.6089
		c-9.4453,1.6339-18.9192,3.7353-28.6001,3.9349c-2.1038,0.0433-4.2053,0.2391-6.3083,0.2429
		c-10.2698,0.0187-20.488,0.7892-30.6836,1.9607c-1.6697,0.1918-3.3806,0.3521-5.0452,0.2099
		c-17.054-1.4576-33.9524,1.6457-50.9568,1.7263c-3.7461,0.0177-7.4966,1.0587-10.9829,2.5669
		c-3.0718,1.3289-3.4795,3.9314-0.6738,5.7652c3.1299,2.0457,6.5256,4.4099,10.0605,4.9414
		c5.3774,0.8086,10.5347,2.5,15.9397,3.1455c16.937,2.023,33.9243,2.368,50.9587,2.605
		c13.6685,0.1902,27.3296,1.4907,41.0183,1.1009c18.6995-0.5324,37.376-1.5066,56.0176-3.1769
		c9.6272-0.8626,19.3206-1.0052,28.9395-1.9335c8.2024-0.7916,16.3408-1.5596,24.5129,0.0484
		c1.0273,0.2022,2.1233,0.1583,3.1018,0.4857c4.0938,1.3706,5.0374,4.0025,2.8853,7.8655
		c-1.2578,2.2571-3.1924,3.8381-5.2388,5.3606c-12.9539,9.6375-27.5972,15.6136-42.8994,20.3541
		c-7.1729,2.222-14.3987,2.7246-21.7869,2.6764c-20.4202-0.1333-40.854,0.2038-61.2546-0.4765
		c-7.9607-0.2654-15.9585-1.1952-23.9055-0.7088c-13.0088,0.7961-26.1033,0.3828-39.0205,2.368
		c-3.8743,0.5954-7.9309,1.063-11.3035,3.5241c-1.521,1.1099-1.6353,2.1451-0.395,3.6288c1.4189,1.6974,3.2395,2.442,5.2139,3.2786
		c11.4492,4.8508,23.4868,7.4988,35.6323,9.7037c12.5454,2.2775,25.082,4.7355,37.7219,6.3231
		c11.8342,1.4863,23.6353,3.3033,35.2668,5.6715c17.8394,3.632,35.6196,7.6832,53.1733,12.6562
		c12.0535,3.415,24.2783,6.2379,36.4646,9.1674c3.6462,0.8766,7.4963,0.9341,11.1169,1.8846
		c4.1133,1.0797,4.7397,4.1041,1.4788,6.9188c-3.8625,3.3336-8.4565,5.4768-13.3477,6.8986
		c-13.5435,3.9372-27.3101,6.5614-41.407,7.6431c-7.3723,0.5657-14.6597,0.8796-22.053,0.2174
		c-11.3704-1.0184-22.1467-4.511-33.0439-7.4309c-17.594-4.7142-35.0063-10.1069-52.6113-14.7769
		c-17.1707-4.5547-34.3115-9.3305-51.8782-12.1968c-3.2598-0.5319-6.7219-0.9105-9.9688,0.3685
		c-2.7244,1.0732-3.0928,2.7565-0.9146,4.6102c2.7104,2.3066,5.4614,4.5529,8.8062,6.0314
		c15.3589,6.7887,31.4524,11.5,47.2429,17.0776c9.4631,3.3427,18.7207,7.4907,27.6396,12.1091
		c30.7607,15.9284,61.5574,31.7808,92.5195,47.3154c4.8533,2.4349,9.3457,5.6101,13.9133,8.5838
		c1.7297,1.1263,3.3589,2.5057,4.7527,4.0273c2.0869,2.2791,3.1704,5.0269,1.9524,8.1111
		c-1.2532,3.1733-4.0671,4.1387-7.1387,4.2375c-9.0547,0.2917-17.9692-0.0466-26.7178-3.1669
		c-19.3398-6.8976-38.3218-14.6471-57.2708-22.5374c-11.2061-4.6661-22.3606-9.4708-33.625-13.992
		c-11.3918-4.5723-22.8877-8.9315-34.5239-12.8289c-5.2468-1.7574-10.8484-3.3109-17.0713-1.6218
		c1.0496,5.925,5.5654,8.8756,9.5923,11.8956c20.2168,15.1627,42.6196,26.8326,64.1628,39.8826
		c12.9292,7.832,25.3987,16.3641,36.7156,26.4737c6.9324,6.1926,12.7893,13.3184,18.1401,20.8569
		c2.2886,3.2241,4.999,6.148,6.5408,9.9476c2.5562,6.2992,0.4131,9.6052-6.3704,9.7471c-4.1821,0.0876-7.9033-1.3284-11.3826-3.1487
		c-12.7986-6.6964-24.8728-14.6444-37.2813-22.0179c-12.7314-7.5659-25.2966-15.3748-38.3745-22.4132
		c-9.958-5.3595-20.0276-10.4402-30.2197-15.2766c-5.0286-2.3862-10.2056-4.9351-16.1389-4.367
		c-1.4619,0.1401-2.8479,0.1343-4.2129,0.9788c-3.7783,2.3373-3.7756,3.0197-2.0403,7.3645
		c2.0728,5.1894,6.3528,8.4046,10.1599,11.8871c11.175,10.2223,23.5857,18.8947,36.1821,27.2598
		c10.2402,6.8006,19.2019,14.9044,26.4468,24.8373c4.1316,5.6646,5.8267,11.9548,4.8215,19.0465
		c-1.0898,7.6913-6.5254,11.3563-12.6404,14.4909c-1.3599,0.697-2.8481,0.2444-4.2664-0.3656
		c-7.3635-3.1673-14.1292-7.1454-20.4377-12.2407c-11.7512-9.4909-22.9766-19.6504-35.3196-28.3915
		c-2.0369-1.4426-15.426-8.213-19.6765-7.9047c-2.5808,0.1871-2.7205,2.3818-2.2393,4.3057
		c1.0369,4.1445,3.1431,7.8798,5.6912,11.2048c6.3052,8.2278,11.3982,17.1854,16.1553,26.3227
		c2.4316,4.6711,3.7307,9.8058,2.9402,15.2563c-0.3301,2.2762-0.2429,4.5804-0.1055,6.9105
		c0.4797,8.1281-5.9192,16.4635-13.7505,18.1324c-1.2021,0.2562-2.6428,0.3452-3.7537-0.0723
		c-9.3728-3.5223-19.0215-6.6469-25.3196-15.2732c-2.5178-3.4488-5.9172-5.9769-9.176-8.6086
		c-4.96-4.0055-10.6921-4.2745-16.635-2.7631c-2.6182,0.6659-3.1038,2.294-2.3752,4.8041c1.5779,5.4341,1.8457,11.144,3.7283,16.567
		c1.2954,3.7323,1.0166,8.0079,2.0605,11.7698c1.363,4.9123-0.8757,7.6813-4.0415,10.2964
		c-2.4465,2.0211-8.0142,1.6893-11.2002-0.7103c-3.8696-2.9144-8.1794-5.0377-12.2788-7.537
		c-4.9487-3.0171-10.2598-2.3725-15.3433-1.6732c-6.0569,0.8334-8.6641,6.064-6.4883,11.9139
		c1.4641,3.9372,3.0657,7.7663,3.9131,11.944c0.5483,2.7021,0.0596,4.5216-1.9871,6.0386c-1.6831,1.2476-3.3376,2.6894-5.2424,3.454
		c-7.4268,2.9815-15.0732,4.9179-23.2156,4.3051c-2.2349-0.1682-4.0664-1.0107-5.7422-2.2423
		c-4.0432-2.9721-8.4238-5.4267-12.1667-8.8886c-3.4309-3.1732-7.8787-4.8039-12.5747-5.3071
		c-5.1797-0.5551-8.5764,3.2009-7.0266,8.2377c1.3494,4.3847,1.6416,9.0919,4.2241,13.1487
		c1.8464,2.9008,1.4688,5.983-0.6306,8.8489c-6.51,8.8865-19.7405,11.6758-29.2729,6.0634
		c-5.845-3.4413-12.0029-4.7471-18.7444-3.3972c-7.572,1.5164-13.0718,6.4417-14.0435,14.1599
		c-0.6448,5.1226-3.0779,7.9966-7.5935,9.7502c-2.3418,0.9094-4.5735,2.0993-6.8745,3.1179
		c-7.7781,3.4432-14.9275,2.5719-21.834-2.5657c-6.8484-5.0944-14.7974-7.6133-23.303-8.0225
		c-3.8835-0.1868-7.4238,1.3344-10.4944,3.7141c-2.1614,1.6753-3.3772,3.7375-1.9202,6.5571
		c0.3835,0.742,0.7002,1.5551,0.8547,2.372c0.5295,2.8007,3.3208,5.4963,1.5491,8.3266c-2.3398,3.7375-5.4294,6.9115-9.9705,8.2791
		c-7.8796,2.373-15.1851,1.025-21.1799-4.3253c-4.7983-4.2823-9.6077-6.7115-16.2515-6.5839
		c-3.2722,0.0628-6.6299-0.0004-9.9109,0.2628c-5.8203,0.4669-9.1794,3.7967-9.9353,9.5558
		c-0.2454,1.8674-0.1631,3.793-0.0813,5.6855c0.2678,6.1964-2.8875,10.4465-7.9146,13.3748
		c-6.3433,3.6951-12.9924,5.4976-20.5544,3.7619c-3.8245-0.8778-7.8495-1.2241-11.724-2.0881
		c-5.549-1.2374-9.9604-4.1373-12.9293-9.1752c-4.4966-7.6305-13.2157-9.5826-20.4259-4.691
		c-2.0831,1.4133-2.7607,3.3865-2.796,5.9519c-0.1307,9.5086-4.167,13.2864-13.9825,13.3384
		c-2.7236,0.0144-5.4397,0.2425-8.1719-0.4178c-6.6012-1.5957-11.1396-5.8427-14.2971-11.4758
		c-2.5399-4.5311-6.3549-7.235-11.1027-6.8094c-5.5348,0.496-11.6405,1.5842-13.9471,7.9856
		c-3.1708,8.7991-9.3501,14.1696-17.9362,17.3452c-9.8601,3.6469-27.0417,2.5891-32.5603-10.6707
		c-2.3748-5.7052-7.9541-6.5286-13.4318-5.9963c-5.1958,0.5048-9.9867,2.3019-11.6805,7.9438
		c-2.1046,7.0105-7.3569,9.4583-13.8634,9.6064c-4.9573,0.113-9.8958,2.0157-14.9105,0.1528
		c-5.246-1.9488-10.9177-2.5601-15.9119-5.4039c-3.1912-1.8172-5.6227-3.8891-7.3368-7.3303
		c-3.2999-6.6245-14.5154-8.5032-20.214-3.7902c-1.7456,1.4438-2.3473,3.4271-2.6752,5.5288
		c-1.4175,9.0858-4.7198,11.8876-14.2668,11.6728c-3.1372-0.0704-6.3043-0.4673-9.3844-1.0823
		c-6.7831-1.3543-11.9653-4.7151-14.5074-11.6161c-1.7635-4.7873-5.6794-7.1257-10.6837-7.7084
		c-6.8013-0.792-9.8599,1.4865-11.0005,8.2236c-1.6003,9.4509-3.5564,11.37-13.1953,12.9546
		c-10.9114,1.7936-19.9453-1.4136-26.8728-10.1429c-2.6152-3.2956-5.2308-6.5966-7.7015-10.0001
		c-4.3342-5.9706-13.1735-6.0908-17.5669,0.0347c-1.699,2.3684-3.0354,5.0787-4.1023,7.8035
		c-3.5198,8.9885-11.9297,12.2764-21.0688,11.5313c-4.8184-0.3928-9.5408-1.7327-13.6587-4.5001
		c-5.7484-3.8632-11.6786-7.4158-17.1545-11.741c-4.3507-3.4362-9.1316-6.8743-15.3546-6.2139
		c-3.6882,0.3912-4.6844,2.0137-2.2461,4.8618c2.8035,3.2744,5.14,6.8506,8.9579,9.4835
		c7.4087,5.1097,14.817,10.5027,21.3104,16.6396c6.3247,5.9775,12.734,11.8112,19.3405,17.4623
		c1.5634,1.3373,2.8555,3.0659,4.0171,4.7867c6.6057,9.7841,16.318,16.6445,23.8879,25.5112
		c10.4558,12.2465,21.7533,23.8047,30.963,37.0696c3.1946,4.6011,6.9003,8.9407,8.4905,14.5862
		c1.0483,3.7223,0.874,6.9657-1.2632,10.2179c-2.6587,4.0453-4.9852,8.3074-8.5369,11.7114
		c-5.953,5.7054-11.2562,5.8876-19.3898,3.4711c-7.4781-2.222-13.7644-5.7157-19.4478-10.8062
		c-1.1968-1.072-2.8525-1.5981-4.5833-1.9155c-5.2633-0.9655-10.4985-0.5303-15.6505,0.36
		c-4.9592,0.8571-6.4207,3.7279-4.0291,8.2227c3.645,6.8507,7.2556,13.7865,12.3418,19.7386
		c6.9537,8.1377,12.4476,17.3287,18.7689,25.9221c1.6462,2.238,2.1093,5.468,2.6927,8.3286c0.481,2.3573-2.2141,4.9547-5.824,5.5306
		c-3.7456,0.5977-7.5269,0.3909-11.3065-0.313c-8.9186-1.6608-17.9326-2.4963-27.0092-2.4552
		c-2.0902,0.0094-4.2482,0.1113-6.2559,0.6312c-7.3224,1.8959-11.6649,8.2136-9.2861,15.281
		c2.8169,8.3698,4.2003,17.1914,7.8295,25.2428c1.8662,4.1406,2.9261,8.2639,3.1052,12.7327
		c0.2681,6.6888-2.5826,9.5612-9.1534,8.5009c-5.4219-0.875-10.4105-3.171-15.2889-5.691
		c-7.8335-4.0464-15.2604-8.8248-23.5411-12.0861c-6.0188-2.3704-12.177-3.3113-18.4684-3.5499
		c-7.9543-0.3018-12.2059,5.4303-10.2974,13.0872c1.6328,6.5508,4.8369,12.5219,6.7156,18.9745
		c0.6453,2.2168,1.7618,4.3295,2.1599,6.5786c0.8878,5.0167-1.573,7.0568-6.5425,6.556
		c-9.7207-0.9799-16.8076-6.6953-22.8212-13.3687c-7.8511-8.7128-18.2294-9.8165-28.6494-5.672
		c-2.2576,0.8978-3.0607,2.5442-3.6576,4.6951c-1.0999,3.9623-0.9443,8.0175-0.5286,11.9392
		c0.5862,5.5292-1.8804,10.278-3.3263,15.1849c-1.5569,5.2837-11.0337,8.8835-16.6479,7.2393
		c-7.5229-2.2032-13.3342-7.192-18.0581-12.9413c-3.757-4.5724-7.5957-9.1086-12.0388-12.8101
		c-5.2047-4.3362-11.2257-7.9917-18.6901-6.8213c-5.8673,0.92-7.657,3.2228-8.5546,8.9521
		c-1.7756,11.3348-2.3231,22.9591-7.8182,33.4769c-2.9247,5.5977-6.4436,7.598-12.6891,6.8585
		c-9.4161-1.1147-16.9031-6.1359-23.8657-11.9041c-8.3141-6.8873-14.8727-15.3799-20.5896-24.533
		c-3.1948-5.1156-7.2087-9.6794-9.4785-15.4272c-1.1816-2.9932-3.6072-5.0886-7.3444-5.0386
		c-4.4642,0.0601-6.0437,0.8344-7.4556,5.1932c-1.2841,3.9647-2.1008,8.0804-3.1266,12.1289
		c-0.2068,0.8165-0.3772,1.6465-0.6478,2.4419c-4.396,12.922-16.1366,16.6195-27.2816,8.3363
		c-4.1978-3.1198-8.9866-6.2848-11.5331-10.5947c-4.1702-7.0579-8.7551-13.9058-11.6476-21.8698
		c-3.2089-8.8353-5.8101-18.0774-11.0809-26.1317c-1.7092-2.6118-3-5.5703-4.0413-8.5258c-1.028-2.9177-2.5991-3.729-5.675-3.4659
		c-9.7357,0.8328-13.9076,7.7861-17.3553,15.4202c-3.1223,6.9135-7.3181,12.9247-13.2466,17.6477
		c-4.1201,3.2825-11.1932,3.1832-15.1293-0.3956c-4.8568-4.416-8.7159-9.3916-10.3452-16.1444
		c-1.0161-4.2124-1.986-8.4878-3.2299-12.6674c-0.2983-1.0024-1.1505-16.1101-1.512-19.2274
		c-0.8054-6.9452-2.0425-13.79-4.2291-20.4462c-0.6648-2.0233-1.6644-3.7712-3.2211-5.2992
		c-3.3291-3.2676-5.9849-3.7366-10.1124-1.5695c-6.8999,3.6227-12.7693,8.7052-18.6476,13.6724
		c-2.9745,2.5135-6.1896,4.3518-9.6429,5.6975c-5.9156,2.3053-10.7073-2.0129-13.3478-8.4437
		c-4.7805-11.6423-4.7537-23.6802-1.1729-35.6853c1.9775-6.6304,3.7893-13.2828,4.5588-20.1772
		c0.6409-5.7416-1.9712-10.3564-5.4009-14.5341c-1.3622-1.6591-3.6749-2.5648-5.7542-1.7103
		c-3.3386,1.3724-6.9646,0.9395-10.348,2.4637c-6.0876,2.7426-12.323,1.177-16.2239-4.4075
		c-6.35-9.0907-12.5955-18.3305-14.2372-29.7751c-0.8971-6.254,0.3831-11.9306,5.3453-15.6957
		c8.28-6.2825,16.6676-12.4069,25.7711-17.619c14.3888-8.2382,29.4647-14.983,44.5201-21.7567
		c8.6127-3.875,17.4874-7.2427,25.8068-11.7037c11.0088-5.9031,37.219-19.6815,39.4257-20.3228
		c2.9075-0.8452,21.5477-12.5133,23.0621-16.8684c0.9905-2.8484,3.5658-4.9434,2.1244-8.6014
		c-0.7146-1.8133-1.4819-2.6066-3.2399-3.243c-4.0259-1.4573-7.5182-0.988-11.4738,0.8312
		c-8.496,3.9072-15.3185,9.6553-21.5181,16.5084c-4.2444,4.6919-9.668,8.092-15.6359,10.1839
		c-3.5356,1.2393-7.337,1.42-11.0054-0.5873c-5.4812-2.9996-10.0074-6.557-12.5924-12.6516
		c-2.4128-5.6881-6.5066-7.4495-11.5897-6.4609c-1.0715,0.2085-2.5641,0.486-2.5973,1.4321
		c-0.1702,4.847-5.0303,7.4729-5.2755,12.4972c-0.3398,6.959-5.4785,10.5491-12.5612,9.8893
		c-7.2997-0.68-13.2181-4.1304-18.0302-9.4028c-2.0955-2.2958-4.3694-4.4161-6.2032-7.0462
		c-4.4862-6.434-15.1586-8.1346-19.9258-3.7123c-3.8646,3.5849-7.1322,7.7639-8.6208,12.7552
		c-1.5054,5.047-4.5868,8.5016-8.83,10.9254c-4.5225,2.5831-11.9005-0.1646-15.3556-5.3875
		c-1.0311-1.5588-1.5906-3.4213-2.4749-5.0869c-3.0345-5.7153-6.0516-7.6409-13.1162-7.0566
		c-2.6957,0.223-5.4463,0.21-8.0131,1.4963c-3.881,1.9448-6.2626,4.3751-7.8455,8.9665
		c-3.7787,10.9612-10.6444,18.3942-22.7068,15.7372c-8.4423-1.8597-15.2507-5.7057-19.7614-13.1215
		c-1.8613-3.0601-4.4039-4.7271-7.6782-6.0846c-7.3351-3.0411-10.9311-0.5419-13.435,6.664
		c-3.7469,10.7828-5.494,12.0784-16.304,8.1268c-11.3575-4.1517-21.5942-10.1521-29.5679-19.5891
		c-4.7129-5.578-10.916-9.2186-17.8066-11.3426c-6.7647-2.0851-9.8737,0.5802-9.9187,7.7519
		c-0.0145,2.3114,0.2217,4.6628-0.121,6.9257c-0.7164,4.7296-2.9449,6.6244-7.7155,6.5132
		c-7.2314-0.1685-12.8892-3.7139-17.2321-9.1922c-3.5238-4.445-7.137-8.9151-9.6287-14.056
		c-3.7659-7.7697-20.7741-15.5848-29.9728-13.6829c-5.1732,1.0697-8.7926,3.7659-9.4503,9.443
		c-0.5604,4.8375-2.8734,8.3019-7.8824,9.4257c-1.0066,0.226-2.1357,0.446-3.1036,0.2201
		c-8.2729-1.9313-16.0464-4.962-22.3614-10.9026c-5.0634-4.7634-9.9294-9.7443-15.1211-14.361
		c-4.3671-3.8834-8.8492-7.5173-15.163-8.2852c-4.1072-0.4995-6.969,0.2761-8.9718,3.8912
		c-0.7122,1.2855-1.5495,2.5045-2.218,3.8109c-2.6218,5.1242-4.2513,5.8297-9.353,3.7939
		c-4.8038-1.9169-8.748-4.9856-11.7985-9.1663c-3.0156-4.1331-6.7687-7.3774-11.0289-10.2379
		c-4.3558-2.9247-9.0221-3.1604-13.9041-2.8877c-1.9709,0.1101-3.6146,0.9575-4.9576,2.4146
		c-1.4197,1.5403-2.8647,3.0573-4.3047,4.5789c-5.2405,5.5375-7.7744,6.0063-14.2709,1.9708
		c-4.1243-2.5621-7.8082-5.7739-10.5088-9.8822c-2.8885-4.3943-5.7631-8.7972-8.113-13.5326
		c-2.5969-5.2328-6.5568-9.2225-11.7878-11.9181c-4.1205-2.1233-5.8757-1.7979-8.6519,1.7578
		c-0.6456,0.8268-1.2664,1.6802-1.8206,2.57c-5.1536,8.2732-8.756,6.5089-15.0535,2.3979
		c-6.167-4.0254-9.6276-10.4644-12.9716-16.8359c-1.9575-3.7298-3.8295-7.5051-5.8318-11.2104
		c-1.8309-3.3882-4.2366-6.321-7.6839-8.174c-5.069-2.7246-8.7483-1.1811-10.5695,4.211c-0.5349,1.5837-1.3825,3.0596-2.0433,4.6036
		c-2.6007,6.0773-4.4311,6.8035-10.6141,4.3637c-8.1849-3.23-12.7813-10.0421-17.037-17.1237
		c-2.4977-4.1561-4.8726-8.3824-8.1991-11.9408c-3.0306-3.2418-6.3488-6.1512-10.571-7.8096
		c-7.0093-2.7531-12.7876-1.1696-17.325,4.7457c-2.4313,3.1699-4.7486,6.4379-7.3384,9.4728
		c-3.4477,4.0406-6.2379,4.6417-11.1325,2.3693c-7.7782-3.6111-12.7813-10.1366-17.0709-17.1976
		c-2.8387-4.6728-5.5213-9.4337-8.5834-13.976c-6.0978-9.0452-17.5964-13.4849-28.0973-10.6248
		c-3.4443,0.938-6.8483,2.0374-10.2366,3.1653c-4.9624,1.6518-9.3019,0.1165-12.8456-3.133
		c-4.6502-4.264-9.1326-8.8677-11.2606-15.0208c-4.5126-13.048-18.1332-14.4706-27.079-12.2637
		c-4.244,1.0468-8.2566,3.0325-12.3736,4.5939c-5.7107,2.1657-8.9407,1.4168-12.9248-3.2009
		c-2.8164-3.264-4.4389-7.1292-5.1592-11.3649c-1.1651-6.8508-1.0739-13.7606-0.6748-20.6539
		c0.0845-1.46,0.2575-2.9255,0.1317-4.3754c-0.7821-9.013-6.4563-12.1572-14.455-8.0017
		c-11.3922,5.9185-21.4197,13.9464-32.1227,20.9301c-3.0088,1.9633-6.0927,3.7366-9.3107,5.2668
		c-7.2278,3.437-13.4481,0.7708-15.788-6.9648c-2.6859-8.8795,0.4173-16.5865,5.7327-23.5358
		c2.6908-3.5178,6.3061-6.1757,9.767-8.9484c18.566-14.8742,37.6929-29.0523,55.4585-44.9229
		c3.944-3.5233,7.1699-7.6465,10.7726-11.4493c1.4985-1.5817,2.6537-3.4418,1.3328-5.6649
		c-1.1847-1.9938-3.2887-1.497-5.1442-1.5407c-4.2827-0.1008-7.5436,2.6086-10.8467,4.5697
		c-18.5632,11.0212-36.4384,23.1094-53.8485,35.879c-3.0485,2.2358-6.0232,4.5013-8.5075,7.4518
		c-1.442,1.7125-3.5749,2.9396-5.5761,4.0668c-6.2184,3.5024-12.8118,6.2609-19.0552,9.7675
		c-5.3448,3.0019-11.7337,3.2351-17.7165,4.0555c-14.1769,1.9443-28.4303,3.3096-42.7903,2.9294
		c-2.5675-0.0681-5.0448-0.3127-7.4025-1.3201c-4.2555-1.8183-4.9692-4.1364-2.2276-7.7547
		c2.3014-3.0372,5.259-5.4072,8.2526-7.7652c8.4904-6.6875,18.3246-11.0757,27.6107-16.3969
		c16.6272-9.5279,33.4389-18.7426,49.9133-28.5262c17.3676-10.314,34.7408-20.6692,50.7096-33.142
		c2.4898-1.9448,4.9681-3.923,7.2808-6.0698c1.6856-1.5646,3.3113-3.2861,4.5725-5.196c2.4316-3.6823,1.5029-5.4501-2.8034-5.6852
		c-2.7518-0.1502-5.4621,0.2788-8.137,0.9418c-12.1135,3.002-23.5159,7.9536-34.9215,12.8585
		c-23.5586,10.1312-46.7151,21.1919-70.5779,30.6186c-5.3236,2.103-10.9904,2.908-16.6513,3.4366
		c-24.088,2.2492-47.9484,1.4478-71.2907-5.6993c-1.6094-0.4928-3.2305-0.9919-4.7668-1.6685
		c-2.3873-1.0515-4.8205-2.6296-4.7589-5.3542c0.0657-2.9044,1.2406-5.7899,4.3252-7.1696
		c4.0233-1.7995,8.039-3.5878,12.2873-4.8585c19.3168-5.778,38.7493-11.2186,57.867-17.5994
		c20.2892-6.7717,40.8443-12.8587,60.5294-21.3479c8.8755-3.8276,18.1346-7.1044,26.3263-12.0969
		c11.4744-6.9932,24.0016-11.7178,35.6389-18.2521c2.8807-1.6174,7.1329-3.6899,5.7362-7.1801
		c-1.2645-3.1599-5.8609-1.8254-8.8197-1.0066c-12.103,3.3495-24.4298,6.2291-36.065,10.8241
		c-9.4849,3.7457-18.934,7.7437-28.4542,11.4063c-20.7534,7.9844-41.5476,15.8646-64.5121,15.152
		c-11.9634-0.3712-24.0162,1.6248-35.9708,0.4315c-9.6145-0.9598-19.3978,0.6993-28.8519-1.997
		c-4.2436-1.2103-8.4223-2.6204-11.616-5.9571c-3.1612-3.3029-3.0501-5.31,0.4513-8.388c2.6452-2.3253,5.9161-3.3491,9.1823-3.963
		c13.8419-2.6014,27.1401-7.244,40.7749-10.5928c19.3501-4.7525,38.7629-9.2501,58.1514-13.846
		c14.1267-3.3487,27.5115-9.0938,41.5497-12.7598c17.2781-4.5122,34.502-9.2328,51.3772-15.1436
		c4.1908-1.468,8.102-3.4648,12.0319-5.4402c1.356-0.6816,3.509-1.4031,2.5722-3.6201c-0.6993-1.6548-1.4385-3.6332-3.8379-3.7009
		c-0.8423-0.0238-1.6825-0.1159-2.5247-0.1531c-19.9451-0.8816-39.864-0.5817-59.7601,1.1779
		c-20.5573,1.8181-41.1596,2.843-61.7944,2.2402c-15.3571-0.4487-30.6163-2.5291-45.8868-4.0199
		c-13.7364-1.3409-27.5603-3.0576-40.9571-6.842c-3.2506-0.9183-6.4547-2.0412-9.1472-4.1383
		c-2.7117-2.112-2.6775-3.934,0.0638-6.0474c1.3033-1.0047,2.5607-2.0769,4.3649-2.3938
		c9.0867-1.5962,18.1046-3.6481,27.2322-4.9318c13.7064-1.9277,27.4711-3.4702,41.2367-4.9355
		c6.902-0.7348,13.8553-1.0633,20.7946-1.3567c20.418-0.8632,40.8385-1.4493,61.2831-1.5703
		c17.0409-0.1008,34.0517-1.4927,50.9651-3.7282c3.5565-0.4701,6.9691-1.6725,10.0785-3.4687c2.8055-1.6207,2.9-4.1484,0.2538-5.9
		c-1.92-1.2709-4.109-1.9342-6.4067-2.4891c-8.2224-1.986-16.6378-2.4384-24.9828-3.2205
		c-23.0855-2.1637-45.3652-7.8067-67.5125-14.3721c-17.7413-5.2592-35.1948-11.3182-52.4196-17.9987
		c-11.7248-4.5474-23.2373-9.783-33.4492-17.2922c-3.8729-2.8478-7.324-6.3581-9.7638-10.6188
		c-3.6033-6.2926-1.7573-11.7346,4.9267-14.1869c4.4052-1.6162,8.9536-2.2197,13.5966-0.6699
		c17.1313,5.7183,34.3533,11.1755,51.3953,17.1474c15.7184,5.5081,31.9928,8.3771,48.3049,11.1629
		c16.2966,2.7832,32.6382,5.3061,48.9225,8.1575c8.7259,1.5279,17.567,1.9005,26.3207,3.1153
		C327.3083,374.8381,329.7984,374.0413,334.698,371.5513z"/>
	<path d="M443.6013,1306.76c-0.1056,1.0457-0.8817,1.2894-1.6864,1.1884c-0.7127-0.0895-1.7268-0.1492-1.4228-1.3762
		c0.2161-0.8719,0.8686-1.4097,1.7046-1.4038C443.1084,1305.1746,443.5762,1305.8389,443.6013,1306.76z"/>
</g>
</svg>
