<svg xmlns="http://www.w3.org/2000/svg" width="128" height="128"><path d="M79.557 21.529c-3.938.552-7.99 2.627-10.864 5.563-.684.699-12.578 17.489-28.533 40.275-15.048 21.491-27.36 39.126-27.36 39.188 0 .061 10.507.112 23.349.112 19.779 0 23.734-.051 25.867-.328 20.422-2.662 36.055-18.68 38.243-39.184.122-1.139.221-4.789.221-8.111v-6.04l7.413-3.645 7.414-3.645-7.254-3.557c-3.989-1.957-7.373-3.717-7.52-3.911-.146-.195-.266-.606-.266-.913 0-.308-.194-1.298-.43-2.201-2.043-7.798-8.847-13.267-17.005-13.667-1.147-.056-2.621-.028-3.275.064m5.997 14.635c1.77.915 1.623 3.736-.246 4.702-1.654.856-3.815-.425-3.815-2.26 0-1.687 1.002-2.74 2.624-2.757.446-.005 1.092.137 1.437.315" fill="#fff" fill-rule="evenodd"/></svg>