<?xml version="1.0" encoding="utf-8"?><svg xmlns="http://www.w3.org/2000/svg" version="1.1" xmlns:xlink="http://www.w3.org/1999/xlink"  width="128" height="128" viewBox="0 0 128 128"><g transform="matrix(0.8046875,0,0,0.8046875,12.506335372881338,21.375426485268164)"><svg viewBox="0 0 59 49" data-background-color="#8abe53" preserveAspectRatio="xMidYMid meet" height="106" width="128" xmlns="http://www.w3.org/2000/svg" xmlns:xlink="http://www.w3.org/1999/xlink"><g id="tight-bounds" transform="matrix(1,0,0,1,-0.0036289999999894462,-0.013709004909500777)"><svg viewBox="0 0 59.00725799999999 49.027418009818994" height="49.027418009818994" width="59.00725799999999"><g><svg viewBox="0 0 59.00725799999999 49.027418009818994" height="49.027418009818994" width="59.00725799999999"><g><svg viewBox="0 0 59.00725799999999 49.027418009818994" height="49.027418009818994" width="59.00725799999999"><g><svg viewBox="0 0 59.00725799999999 49.027418009818994" height="49.027418009818994" width="59.00725799999999"><g id="textblocktransform"><svg viewBox="0 0 59.00725799999999 49.027418009818994" height="49.027418009818994" width="59.00725799999999" id="textblock"><g><svg viewBox="0 0 59.00725799999999 49.027418009818994" height="49.027418009818994" width="59.00725799999999"><g><svg viewBox="0 0 59.00725799999999 49.027418009818994" height="49.027418009818994" width="59.00725799999999"><g><svg xmlns="http://www.w3.org/2000/svg" xmlns:xlink="http://www.w3.org/1999/xlink" version="1.1" x="0" y="0" viewBox="0.084 5.438 71.07 59.05000022129204" enable-background="new 0 0 71.467 71.465" xml:space="preserve" width="59.00725799999999" height="49.027418009818994" class="icon-icon-0" data-fill-palette-color="accent" id="icon-0"><path d="M60.812 17.227C60.36 11.34 55.928 6.581 50.192 5.625c-0.688-0.114-1.388-0.187-2.11-0.187-0.729 0-1.442 0.067-2.138 0.187-1.691 0.29-3.268 0.911-4.666 1.793-1.365 0.861-2.561 1.961-3.51 3.26-0.028 0.035-0.061 0.067-0.085 0.104C37.616 10.875 0.084 64.486 0.084 64.486c0.074 0 21.532 0.002 30.384 0.002 16.752 0.002 30.336-13.553 30.388-30.293 0-0.03 0.001-0.061 0.002-0.092v-6.768l10.296-5.044L60.812 17.227zM49.561 19.156c-1.042 0-1.885-0.845-1.885-1.886 0-1.041 0.843-1.883 1.885-1.883 1.041 0 1.886 0.842 1.886 1.883C51.446 18.311 50.602 19.156 49.561 19.156z" fill="#ffffff" data-fill-palette-color="accent"></path></svg></g></svg></g></svg></g></svg></g></svg></g><g></g></svg></g></svg></g><defs></defs></svg></g></svg></g></svg>