<?xml version="1.0" encoding="utf-8"?>
<svg version="1.1" id="Layer_1" xmlns="http://www.w3.org/2000/svg" xmlns:xlink="http://www.w3.org/1999/xlink" x="0px" y="0px"
	 viewBox="0 0 1856.4178 1669.4326" enable-background="new 0 0 1856.4178 1669.4326" xml:space="preserve">
<path d="M1816.1461,1018.158c-1.8677-5.4106-5.0758-10.2363-8.6921-14.6192c-7.2214-8.6637-15.9307-15.9307-24.8782-22.7378
	c-8.4534-6.3134-16.9979-12.6265-26.502-17.2934c-9.8901-5.0471-20.2341-9.1064-30.2719-13.8187
	c-31.0948-14.2446-63.7117-24.8101-96.5325-34.2631c-50.2845-14.392-101.3468-25.8774-151.5746-40.4683
	c-13.3533-3.8379-27.0356-6.4211-40.2924-10.5883c-20.45-6.1884-38.0269-18.707-55.9164-29.9539
	c-10.1399-6.5403-20.9894-11.9225-32.1283-16.5325c-11.6954-4.928-23.6464-9.2428-35.1089-14.6987
	c11.6443-2.5264,23.3396-5.6263,33.911-11.2639c-4.9396-7.6872-8.4026-16.1636-12.1555-24.4525
	c-3.7753-8.3798-8.1809-16.7142-14.8804-23.141c0.8688-2.2198,4.2638-4.3262,2.4186-6.8867
	c-6.1145-6.6766-10.3726-14.7214-14.9031-22.4824c-4.2751-7.5793-9.5664-14.5739-15.8967-20.552
	c-15.7716-15.153-34.8988-26.241-54.4177-35.83c-20.7278-10.066-42.2452-18.3776-63.8136-26.4282
	c-23.7144-8.7943-47.9283-16.5779-70.4222-28.2903c-19.0643-9.7481-37.3401-21.5457-58.0056-27.7341
	c-14.5342-4.2977-29.7948-4.6781-44.7891-5.9157c-11.2808-0.9709-22.8342-1.8793-33.3884-6.3019
	c-9.7312-4.0367-17.9178-10.9858-24.9803-18.6616c-6.989-7.3919-13.4725-15.3005-21.2507-21.8976
	c-9.0837-7.8575-18.8884-14.8009-28.4833-22.0056c-8.8907-6.563-17.3898-13.6314-26.0477-20.4896
	c-57.5062-45.9413-114.6435-92.3709-173.6313-136.4047c-7.5566-5.7966-15.5448-10.9914-23.3171-16.4814
	c-6.9547-5.0131-14.1196-10.0546-19.3881-16.9129c-5.3311-7.5453-8.5672-16.2884-13.1092-24.2822
	c-7.5396-12.8932-15.6241-25.4573-23.0898-38.396c-22.5618-38.538-42.762-78.5975-68.8666-114.9442
	c-12.8763-17.8724-27.2628-34.7682-43.8635-49.2966c-7.2102-6.2338-14.3751-12.5584-22.2268-17.986
	c-8.9476-6.1826-18.7751-10.9005-28.4494-15.8058c-10.5316-5.0642-21.3413-9.8502-32.8322-12.246
	c-27.9896-5.3993-57.4494-4.5705-84.6667,4.2466c-21.7727,7.3523-42.0411,18.4571-61.6448,30.3058
	c-4.7975,2.7365-9.6403,5.5752-15.0054,7.0513c-5.4049,1.4591-10.9914,0.3123-16.4757,0.1815
	c-2.6515-0.1021-5.2857,0.1931-7.92,0.4145c-9.1576,0.8516-18.2528,2.339-27.2684,4.1388
	c-22.6074,4.6442-44.7491,11.3207-66.4878,19.0193c-21.7898,7.6871-43.3467,16.8504-62.2354,30.3513
	c-16.436,11.6895-30.618,27.2968-38.0611,46.2534c10.8608,2.3449,21.8522,4.0935,32.8834,5.4277c0,0,47.9737,4.3488,63.9499,5.4446
	c28.3302,2.0325,56.8022,4.1956,84.5646,10.5201c1.1525,0.2555,2.3504,0.4941,3.3781,1.1299
	c5.4275,3.0488,9.9069,7.5168,13.6653,12.4277c6.2055,8.2153,10.6566,17.6056,14.1652,27.2458
	c4.1728,11.6159,6.9831,23.7144,8.4366,35.9718c3.4359,28.1916-4.0358,56.6843,1.1292,84.7678
	c0.3048-0.0174,0.2173-0.0124,0.5221-0.0298c0.4145-6.1854,1.1176-12.6839,4.2644-18.1481c0.1476,3.0317-1.2774,5.9669-0.8346,8.993
	c0.0966,1.3626,2.2029,2.2369,3.1736,1.2945c1.4081-6.881,2.5379-13.9948,5.8535-20.2796
	c1.9586,35.5461-2.4639,71.0978-8.7602,106.025c0.6358-0.6756,1.5726-2.5661,2.6797-1.5726
	c0.3918,1.1979-0.1022,2.4867-0.1703,3.7243c-2.674,20.6089-9.0781,41.019-7.2614,61.997
	c2.4639-4.0423,1.8849-9.6515,5.5581-13.0864c1.0447,4.6725,1.1468,9.4812,1.6635,14.2276
	c0.528,4.1728,1.1353,8.7943,4.1954,11.9622c0.9653-2.5037,1.0448-5.6944,3.418-7.3806c0.1761,4.0026-0.5848,7.9484-1.0332,11.9111
	c-0.3975,3.6051-0.8064,7.4544,0.8571,10.8268c1.3171-1.2433,1.425-3.2928,2.606-4.6384c1.4988,0.1816,1.1071,3.185,2.5094,3.2531
	c2.0211-2.6172,1.5101-6.9548,4.7974-8.5728c0.0625,7.8064-0.5337,15.6809,0.5337,23.4532c0.2951,1.919,0.9085,5.1778,3.5995,4.4
	c2.2709,13.9493,8.4763,27.314,7.7838,41.689c-0.2158,5.5696-2.4697,10.8155-2.7535,16.3679
	c-1.5557,24.6625,3.8152,49.467,13.8641,71.9495c7.4032,16.9696,18.656,31.9409,31.0666,45.561
	c5.8192,6.2734,11.5251,12.7286,18.2982,18.02c10.0489,8.1867,21.5059,15.1699,28.9659,26.0478
	c5.7172,8.1471,10.2477,17.0491,15.5618,25.4517c6.7333,10.5145,13.6826,20.8984,21.2675,30.8225
	c7.7552,10.015,15.732,19.8595,23.561,29.8175c13.3192,17.0322,26.7973,34.1495,36.92,53.3446
	c11.6614,21.8013,20.7849,44.8117,30.9816,67.294c14.3239,31.044,28.2676,62.4456,37.3969,95.4709
	c14.2785,51.7037,25.673,104.2307,33.1899,157.354c1.6351,12.7515,4.2979,25.3381,6.37,38.0215
	c1.2072,7.8705,2.3062,15.8937,2.4547,23.8947c0.1169,6.2915-2.1918,12.3933-6.5272,16.954
	c-21.9421,23.0815-44.356,45.7445-68.0388,67.027c-5.9222,5.6853-13.5702,8.7988-20.2368,13.4344
	c-6.3282,4.6365-6.7343,14.0439-13.0286,18.5784c-15.2622,4.264-31.3025,3.1814-46.9708,4.298
	c-9.7461,0-20.0336,1.6243-29.2722-2.1992c-13.0285-4.8395-24.162-14.7549-38.3073-16.3114
	c-16.8528-0.0679-31.2012,13.7054-33.1301,30.2194c9.2048-10.2533,21.5903-20.3378,36.4126-16.9537
	c5.4144,0.0673,12.6563,6.0233,7.6141,11.3025c-9.577,11.5399-16.2095,25.7527-15.1266,41.1504
	c8.0878-8.1558,13.7729-18.2402,21.8609-26.3281c2.132,4.8395,3.4179,10.3888,7.648,14.01
	c10.1522,1.4889,20.406-5.9559,30.2196-0.9137c7.648,2.8763,15.8374-0.1355,23.587-0.8461c0,0,0.9055-0.1208,2.2899-0.2842
	c6.7663-0.7982,13.5849,1.2021,18.8079,5.577c1.6437,1.377,3.3407,2.6841,5.1962,3.7762
	c10.6599,0.7449,21.4889,0.1017,32.0133-1.7258c9.2384-1.9288,15.1944-12.521,25.2788-11.1672
	c25.5498,2.7747,51.5055,7.4451,77.1567,3.4518c8.0427-5.3232,11.0646-14.2576,11.0321-23.3988
	c-0.0101-2.8394,1.7778-5.3746,4.4941-6.201c6.4361-1.9583,12.9675-3.0547,19.8033,1.106
	c10.9437,6.661,6.9711,22.2675,18.8154,25.8544c0.4736-9.78-1.0005-15.8474-3.9784-25.2892
	c-5.2792-9.915-15.2094-18.9065-25.9707-19.7864c-17.1911-2.4703-31.8777,8.5956-48.0536,12.2837
	c-10.9644,2.9445-25.7526,9.2389-34.6528-1.2178c-3.5193-9.2384,1.3876-18.5107,7.5803-25.2452
	c22.2576-27.025,48.5933-53.3247,74.244-77.4504c2.3528-2.213,4.5043-4.6229,6.4335-7.2135
	c6.4152-8.6144,12.4543-17.4785,17.1912-27.1669c4.1503-8.3286,6.8413-17.3386,8.062-26.5587
	c4.241-29.3466-0.9538-58.8403-2.1971-88.2037c5.9554,4.2864,7.5396,12.496,14.0173,16.2374
	c-0.2611-1.3059-0.5166-2.5947-0.4371-3.8949c1.3683,0.8574,2.1575,2.3279,3.0204,3.6676c1.652,2.6458,3.0148,5.4561,4.4,8.2606
	c0.8231-0.4087,2.0211-0.6926,2.0211-1.8337c-0.352-2.0099-1.7259-3.7301-1.6181-5.8193c1.5047,1.6578,2.3676,3.8209,4.0026,5.3993
	c0.7211,0.9197,1.7941,1.2262,2.9238,0.8174c0.3579-2.7592-3.0941-4.485-2.2767-7.3806c2.6458,2.5095,3.5088,6.7335,7.1933,8.1472
	c0.1136-2.5605-0.6245-5.1609-2.6626-6.8073c0.3065-0.1987,0.9254-0.5962,1.2377-0.7892c1.5216,1.6353,2.2709,4.3092,4.7065,4.8655
	c-2.2596-8.34-5.1096-16.5496-8.9929-24.2765c-0.6246-1.2772-2.0042-2.8046-0.5168-3.9968c1.1694,1.442,2.0381,4.2183,4.4454,3.2928
	c0.4542-2.975-1.6009-5.4275-3.1622-7.7042c0.9935-0.4257,1.97,0.2839,2.7193,0.9141c2.8444,2.6799,4.6215,6.3815,7.8236,8.7148
	c0.9653,0.9652,2.3957-0.3862,2.1857-1.4989c-0.0739-2.322-1.3455-4.343-2.4299-6.302c0.9141-0.2554,1.7032-0.0453,2.3674,0.6418
	c2.061,1.8734,3.1453,4.5192,4.9224,6.6366c1.5101-1.0219,1.3682-2.9351,1.5726-4.5192c7.7213,9.8164,16.277,18.9512,23.828,28.9093
	c1.0162-0.8969,1.8564-2.0723,3.1395-2.6115c1.3442-0.4641,2.2458,1.0096,3.234,1.6278c0.4477-0.2504,0.5383-0.3011,0.9861-0.5515
	c-0.1156-2.4456-2.4296-4.9897-0.4958-7.2534c1.3625,1.1923,2.3903,2.8615,4.1445,3.5653c0.0454-2.5491,0.0398-5.2288-1.0446-7.5793
	c-0.4145-1.0615-2.0381-2.2368-0.6132-3.2075c1.8281,1.0219,3.185,2.7706,5.2175,3.4745c0.7155-3.1281-1.7315-5.3992-4.1954-6.7333
	c1.2604-2.0099,3.1226,0.0851,4.5872,0.6868c-2.0266-10.049-7.2782-19.0985-13.3871-27.2003
	c1.3454-1.5157,3.378-0.193,5.0811-0.3462c-0.5335-0.8005-1.1012-1.5499-1.3965-2.4299c0.8118,0.2102,1.726,0.3633,2.3787,1.0048
	c3.7527,3.2872,5.6092,8.4537,10.1287,10.9176c-0.6133-6.2109-4.7976-11.0594-8.0734-16.0668
	c0.3691-0.3862,0.7551-0.755,1.1583-1.1072c1.5895,1.5897,2.3106,4.2751,4.7234,4.8824c-0.1816-2.6569-0.4314-5.3141-0.1987-7.9652
	c1.6181,1.3569,2.3051,3.4292,3.4406,5.1664c0.8006-0.8856,1.601-1.7714,2.4128-2.64c0.1818,0.3292,0.5507,0.9822,0.7324,1.3114
	c0.6813-0.6584,1.5784-1.3286,1.4249-2.3958c-0.4882-2.9126-2.6627-5.3992-2.2936-8.4762c3.1567,1.4363,3.8834,5.507,7.1876,6.7502
	c-1.5669-13.5236-8.6411-25.588-10.9175-38.9412c2.6002-1.6804,5.876-1.6804,8.6863-0.4995
	c4.9733,1.8792,9.203,5.2061,13.8472,7.7382c5.7909,3.3611,11.6557,6.7107,16.7598,11.0994
	c3.219,2.8783,6.3755,6.1088,7.8573,10.2704c1.6351,4.468,0.7778,9.3621-0.4825,13.8187
	c-1.5331,5.4048-3.679,10.7416-3.9118,16.4189c-0.1987,3.6676,3.0942,6.5006,2.8557,10.1909
	c-0.0511,1.6238-1.2659,2.8217-2.356,3.8833c1.7599-0.0682,4.1161,0.7041,3.9401,2.901
	c-0.7324,5.9556-4.6554,11.4854-3.5768,17.6454c1.0844,0.8176,2.0155-0.5165,2.7764-1.1467
	c-1.0278,5.7795-1.0107,11.6898-0.6473,17.5316c0.9822,14.1823,4.0196,28.0975,6.0805,42.1377
	c1.9649,13.3865,4.1708,28.0864,0.553,41.3081c-5.7645,21.0676-9.6409,41.9591-14.2791,63.2244
	c-3.2025,14.677-7.2234,29.1622-11.5855,43.5328c-3.535,11.646-7.2974,23.2212-11.0479,34.7991
	c-7.2438,17.1122-11.2681,37.7936-27.6103,48.8865c-15.7122,11.2334-31.9145,21.7666-47.9067,32.5796
	c-6.2997,4.7045-13.6663,6.5701-21.2274,7.8672c-11.1801,1.9181-20.7715,9.172-25.3287,19.5596
	c-3.5393,8.0674-6.313,16.4353-7.2996,25.2744c7.4267-10.8456,10.8832-11.3732,15.4325-17.7772
	c3.0444-6.3688,9.9031-9.203,16.0972-11.5829c5.9138,2.4144,7.1387,12.3527,14.8724,11.0232
	c15.3624,0.7347,23.0609-15.1527,35.274-21.6964c-5.4244,13.0876-13.053,25.0907-20.0168,37.3737
	c-1.9958,3.4565-4.3543,6.6892-6.8226,9.8512c-11.5735,14.8268-17.6962,33.1792-17.6181,51.988
	c0.0332,7.9846,0.3159,15.9762,0.5398,23.931l3.8145-12.333c4.8292-18.7213,4.7941-29.5546,19.0016-44.5322
	c7.6989,2.3094,16.6572,6.7535,23.936,0.7698c12.8078-6.194,8.9936-24.4257,21.5913-30.8999
	c13.8925-8.2582,17.8469-24.7406,27.6802-36.3934c16.937,5.7737,31.4246,21.2411,50.8112,16.8669
	c2.0647-5.179,4.1292-10.3582,6.0889-15.5721c15.2574-2.6946,34.6091,0.8398,40.8381,16.9719
	c5.389,9.4132,5.0043,24.0759,16.7271,28.2755c0.175-25.4056-9.5533-56.4808-36.0088-65.2294
	c-11.9681-5.6334-24.0408,3.1497-36.1138,2.45c-8.7834-7.3136-20.5064-15.1522-18.6868-28.3101
	c0.5951-24.4607-3.7093-49.8663,4.6892-73.4172c3.9847-13.9871,9.8431-27.3528,15.644-40.6583
	c2.8027-6.429,5.6146-12.8555,8.2485-19.356c2.5261-6.2343,4.5917-12.6407,6.4648-19.1012
	c2.1732-7.496,4.7515-14.8743,7.7213-22.0916c2.4303-5.9069,7.0917-10.9248,10.8121-16.1445
	c8.2047-11.5112,16.144-23.2834,22.3943-35.9929c5.0814-9.9525,8.7263-20.5804,11.4116-31.4072
	c1.5159,0.6985,2.3674,2.146,3.2021,3.5314c0.7949,1.3341,2.447,1.7428,3.923,1.6635c-0.5053-26.6383-5.4559-52.8905-8.0674-79.347
	c1.4307,1.5272,2.8896,3.4064,5.0698,3.8265c2.1461-0.3634,2.1233-3.1395,2.5038-4.8087c1.777,1.7032,3.5938,3.5654,5.9839,4.4
	c1.1013,0.4087,2.3731,0.051,2.9693-1.005c-3.696-2.0382-7.0626-5.0302-9.0839-8.7544c1.8281,0.085,3.2361,1.4988,4.6953,2.4923
	c1.0334-0.1023,2.061-0.3463,3.0659-0.6699c0.1531-0.7721-0.0056-1.5103-0.6586-1.9473c-1.7487-1.6011-4.2126-2.6857-4.8996-5.1438
	c3.2134-0.3917,4.9961,3.1168,7.92,3.6563c1.2036,0.2952,2.1176-0.6755,2.7931-1.5328
	c-4.5817-7.3864-13.5915-9.7936-19.8082-15.4028c-1.6804-1.5045-3.2589-3.5485-3.0033-5.9271
	c2.7422-0.3463,4.7689,1.9644,7.3635,2.3051c1.533-0.0513,1.6124-1.9304,1.7543-3.0717c-1.2093-0.488-3.2134-1.635-2.3901-3.1451
	c0.931-0.3519,1.9131,0,2.8783,0.0966c0.6416-0.9651,1.1696-2.3335,0.1364-3.2247c-2.3902-2.5605-7.2501-3.696-7.2217-7.8518
	c4.0876-2.6174,8.749-4.3318,13.5802-4.9165c6.4666-0.7213,12.9785,0.2894,19.235,1.9471
	c9.8958,2.3787,18.8659,7.3749,27.9667,11.7805c6.0012,3.134,12.2576,5.7567,18.1791,9.0668
	c5.9953,3.3214,11.9055,6.8413,18.1676,9.6686c3.8719,1.6465,8.0334,3.3611,12.3368,2.714
	c3.5939-0.6246,6.1033-3.5712,8.1017-6.3928c2.7421-4.0482,5.2175-8.3231,8.6238-11.8715
	c7.1707-7.8632,16.8109-13.1659,26.9959-16.0272c13.6996-3.8549,28.1372-3.9629,42.2227-2.7083
	c25.8378,2.4528,50.8977,9.5552,75.8441,16.3851c14.3525,3.974,29.0511,6.4778,43.6364,9.4301
	c11.7295,2.3676,23.2206,5.7626,34.6887,9.1576c23.9188,7.1082,48.0592,15.0167,73.2211,15.7375
	c13.2795,0.3351,26.7122-1.8109,38.9413-7.125c14.114,6.6595,29.5961,9.6686,43.869,15.942
	c10.0831,4.3319,17.9916,12.3484,27.927,16.9585c5.0474,2.4185,10.6394,3.6846,16.243,3.6392
	c1.5726-0.1135,2.6455-1.6862,2.7875-3.1567c0.301-1.4478-0.2384-3.1906,0.9369-4.3262
	c13.2111,6.8981,26.4792,13.6938,39.543,20.8701c11.2751,6.3871,21.9146,13.9493,33.7804,19.2804
	c4.9279-0.9481,5.8986-6.5062,8.3171-10.0659c13.8756,7.3918,25.2532,18.6331,39.1399,26.0193
	c9.9979,5.4276,21.6992,8.1869,33.0311,6.2678c1.8394-4.3717,2.5775-9.2542,5.3821-13.1771
	c3.9969,3.7925,8.6923,6.7675,13.5122,9.4016c8.7091,4.6554,18.196,8.4537,28.1713,8.8965
	c5.0697,0.125,10.7019-1.2887,13.813-5.6147c3.5313-5.1382,3.4177-11.7411,2.657-17.6681
	c9.6855,5.6603,19.3143,11.4172,28.9943,17.0889c6.597-3.3893,14.3184-4.4965,21.5798-2.8671
	c7.2784,1.5101,14.0457,4.7009,21.0176,7.1932c6.3815,2.3448,13.0238,4.1218,19.8312,4.5703
	c1.3397,0.2611,1.8792-1.2946,2.2993-2.2653c1.1241-4.2694-0.051-8.7772,1.0842-13.041c0.2954-0.9935,0.7097-2.129,1.7318-2.5718
	c4.6324,0.4485,9.0211,2.1176,13.4893,3.3383c4.8771,1.3739,10.2649,2.1573,15.1021,0.1815
	c-0.9084-2.7251-2.0609-5.3594-3.5768-7.7778c-4.5023-7.3408-11.6331-12.5809-19.0305-16.7256
	c-9.345-5.2175-19.3715-9.0668-28.688-14.324c-31.9182-16.9753-64.6199-32.4746-95.9418-50.5685
	c-8.8285-5.0471-17.3788-10.5769-26.4966-15.0961c-11.4056-5.9386-23.1353-11.3265-33.9504-18.3208
	c-4.2299-2.7196-8.1981-5.8082-12.212-8.817c-63.0988-47.321-126.6681-94.0686-191.9637-138.3237
	c52.5499,8.6126,104.7988,19.0817,156.6218,31.3164c47.8662,11.3774,95.4198,24.1289,142.3945,38.7822
	c24.2537,7.6418,48.6947,15.5618,74.1293,18.0881c1.8451,0.4713,3.5995-1.1696,4.0934-2.85
	c0.6807-2.7533-0.3264-5.4494-0.7198-8.1582c0.3279-0.3196,0.4683-0.4564,0.7964-0.7761c13.38,1.9675,25.9043,7.2485,38.541,11.8071
	c10.8497,3.974,22.2156,7.0399,33.8542,6.9547C1818.4167,1030.0125,1818.1051,1023.7502,1816.1461,1018.158z"/>
</svg>
