<?xml version="1.0" encoding="UTF-8" standalone="no"?>
<!-- Created with Inkscape (http://www.inkscape.org/) -->

<svg
   xmlns:dc="http://purl.org/dc/elements/1.1/"
   xmlns:cc="http://creativecommons.org/ns#"
   xmlns:rdf="http://www.w3.org/1999/02/22-rdf-syntax-ns#"
   xmlns:svg="http://www.w3.org/2000/svg"
   xmlns="http://www.w3.org/2000/svg"
   xmlns:sodipodi="http://sodipodi.sourceforge.net/DTD/sodipodi-0.dtd"
   xmlns:inkscape="http://www.inkscape.org/namespaces/inkscape"
   width="600"
   height="600"
   viewBox="0 0 600.00001 600.00001"
   id="svg2"
   version="1.1"
   inkscape:version="0.91 r13725"
   sodipodi:docname="swallow-01.svg">
  <defs
     id="defs4" />
  <sodipodi:namedview
     id="base"
     pagecolor="#ffffff"
     bordercolor="#666666"
     borderopacity="1.0"
     inkscape:pageopacity="0.0"
     inkscape:pageshadow="2"
     inkscape:zoom="0.10960155"
     inkscape:cx="-67.273194"
     inkscape:cy="216.9697"
     inkscape:document-units="px"
     inkscape:current-layer="layer1"
     showgrid="false"
     units="px"
     inkscape:showpageshadow="false"
     inkscape:window-width="1923"
     inkscape:window-height="660"
     inkscape:window-x="321"
     inkscape:window-y="220"
     inkscape:window-maximized="0" />
  <metadata
     id="metadata7">
    <rdf:RDF>
      <cc:Work
         rdf:about="">
        <dc:format>image/svg+xml</dc:format>
        <dc:type
           rdf:resource="http://purl.org/dc/dcmitype/StillImage" />
        <dc:title></dc:title>
      </cc:Work>
    </rdf:RDF>
  </metadata>
  <g
     inkscape:label="レイヤー 1"
     inkscape:groupmode="layer"
     id="layer1"
     transform="translate(0,-452.36216)">
    <path
       style="fill:#000000"
       d="m 182.90623,899.83037 c 0.0614,-11.66979 8.09878,-39.19808 23.42451,-80.23148 19.70487,-52.75811 28.80294,-68.54024 43.97368,-76.27978 12.43337,-6.34304 12.58233,-6.65145 10.51068,-21.76576 -2.48625,-18.13898 0.60222,-21.22824 21.29836,-21.30362 13.40339,-0.0489 14.14927,-0.58938 16.24769,-11.77475 2.96964,-15.82943 23.3882,-33.69157 77.11222,-67.45756 83.23484,-52.31373 90.76678,-52.52318 56.85305,-1.5808 -12.16521,18.27359 -30.45865,42.04116 -40.65205,52.81694 -19.15203,20.24609 -42.66479,61.77197 -39.55908,69.86527 2.18425,5.69207 7.10349,7.08935 34.55948,9.81642 20.52049,2.03823 64.72307,12.86052 50.68605,13.14131 -3.25522,0.065 -30.08216,2.5618 -37.39323,7.40007 -13.91676,9.20964 -15.07597,12.62554 -13.40527,39.50191 0.50716,8.15825 4.19739,17.6429 9.64142,24.78039 8.18991,10.73752 8.29588,11.28297 1.48424,7.63749 -4.03457,-2.15923 -17.52424,-15.91308 -29.97701,-30.56397 -20.56852,-24.19928 -33.44214,-33.44704 -46.56107,-33.44704 -10.2062,0 -44.86895,29.18675 -57.73519,48.61428 -17.29479,26.11447 -68.74843,78.34817 -77.17811,78.34817 -1.85348,0 -3.3522,-3.38287 -3.33037,-7.51749 z"
       id="path3353"
       inkscape:connector-curvature="0"
       sodipodi:nodetypes="csssssssssscssssssssc" />
  </g>
</svg>
